<?xml version="1.0" encoding="utf-8"?>
<!-- Generator: Adobe Illustrator 25.0.1, SVG Export Plug-In . SVG Version: 6.00 Build 0)  -->
<svg version="1.1" id="Layer_1" xmlns="http://www.w3.org/2000/svg" xmlns:xlink="http://www.w3.org/1999/xlink" x="0px" y="0px"
	 viewBox="0 0 917.8 567.2" style="enable-background:new 0 0 917.8 567.2;" xml:space="preserve">
<style type="text/css">
	.st0{fill:#3E1E68;}
	.st1{fill:#9EC5E7;}
	.st2{display:none;}
	.st3{display:inline;fill:#9EC5E7;}
	.st4{fill:#3A7CA5;}
	.st5{fill:#44BBA4;}
	.st6{fill:#F2E863;}
	.st7{fill:#F45B69;}
	.st8{fill:#FFFFFF;}
	.st9{opacity:0.9;fill:#FFFFFF;}
</style>
<g>
	<g>
		<path class="st4" d="M315.2,409.3l144.2-144.2l144.2,144.2L459.4,553.4c-10.6,10.6-27.8,10.6-38.4,0L315.2,447.7
			C304.6,437.1,304.6,419.9,315.2,409.3z"/>
	</g>
	<g>
		<path class="st5" d="M565.1,409.3L420.9,265.1L565.1,121l144.2,144.2c10.6,10.6,10.6,27.8,0,38.4L603.5,409.3
			C592.9,419.9,575.7,419.9,565.1,409.3z"/>
	</g>
	<g>
		<path class="st6" d="M565.1,159.4L420.9,303.6L276.8,159.4L420.9,15.3c10.6-10.6,27.8-10.6,38.4,0L565.1,121
			C575.7,131.6,575.7,148.8,565.1,159.4z"/>
	</g>
	<g>
		<path class="st7" d="M440.2,284.4L315.2,409.3c-10.6,10.6-27.8,10.6-38.4,0L171.1,303.6c-10.6-10.6-10.6-27.8,0-38.4l105.7-105.7
			c10.6-10.6,27.8-10.6,38.4,0L440.2,284.4z"/>
	</g>
</g>
<path class="st9" d="M187.5,161.7c-5.3,0-10.6-3.7-12.2-8.6c-0.8-2.9-1.2-5.3-1.2-7.8c0-29,51.8-45.3,109.4-45.3
	c26.1,0,53.9,3.7,77.9,11c2.9,0.8,4.1,3.3,4.1,5.7c0,2.9-1.6,5.3-4.9,5.3h-0.4c-18.8-1.2-39.2-3.3-59.6-3.3c-6.5,0-13.5,0.4-20,0.8
	c0,0.8,0.4,1.6,0.4,2.9c0,11.8-7.3,43.7-7.3,94.7c0,21.2,1.2,45.3,4.5,72.6v2c0,8.6-7.8,13.1-15.9,13.1c-6.5,0-13.5-3.3-15.1-11
	c-5.3-29-8.2-57.9-8.2-86.9c0-27.3,2.4-54.7,7.3-81.6c-19.6,5.3-37.5,15.5-51.4,32.6C192.8,160.5,190.3,161.7,187.5,161.7z
	 M169.5,343.3c1.2,7.8,2,15.1,2,22.9c0,39.2-17.1,77.1-50.6,100c-14.3,9.8-28.2,13.9-40.4,13.9c-25.3,0-43.3-18-43.3-41.2
	c0-10.6,3.7-22.4,11.8-33.9v-9c0-7.3,0-14.7,0.4-22c4.1-69.8,18.4-88.1,29.8-88.1c8.2,0,14.7,9.4,15.5,15.9c0,1.6,0.4,3.3,0.4,4.5
	c0,15.1-8.6,28.2-10.6,70.6v2c0,2.9,0.4,3.3,2,3.3c1.2,0,3.7-0.8,7.3-0.8c4.5,0,10.6,1.2,19.6,6.1c1.6,0.8,2,2,2,3.7
	c0,2.4-2,4.9-4.5,4.9c-0.8,0-1.6,0-2.4-0.8c-6.5-4.9-13.9-6.9-21.2-6.9h-3.3c0,13.9,1.2,27.3,1.2,40.8c0,5.3-0.4,11-0.8,16.3
	c37.5-14.3,52.2-47.3,52.2-80.8c0-43.7-25.7-87.3-57.9-87.3c-9.4,0-20,3.7-30.2,12.7c-16.3,13.5-18.4,29.8-20,49.4
	c-0.4,2.9-2.4,4.5-4.9,4.5c-4.1,0-9.4-4.5-9.4-13.5c0-8.2,4.1-20,17.5-36.3c14.3-18,36.3-27.8,57.9-27.8h1.2
	C125.9,266.1,161,290.2,169.5,343.3z M58.1,449.8c-4.9-11.4-7.3-23.7-8.2-35.9c-3.7,7.3-5.7,13.9-5.7,18.8
	C44.2,442.4,50,448.1,58.1,449.8z M204.2,313.9c-1.2,2-1.6,3.7-1.6,5.7c0,5.3,4.9,9.8,12.7,9.8h0.8c5.7-2.4,8.2-6.9,8.2-11
	c0-5.3-4.1-10.2-10.6-10.2C210.3,308.2,206.7,309.8,204.2,313.9z M336.8,339.2c0-3.3-2.4-6.5-5.7-6.5c-0.8,0-2,0-2.9,0.8
	c-18,10.6-20.8,52.2-38.8,85.7c-2,4.1-2.9,6.1-3.7,6.1c-0.4,0-0.8-2.4-2-6.1c-2-6.1-2.4-13.1-2.4-20.8c0-11,1.2-22.9,1.2-34.3
	c0-4.1-0.4-8.6-0.8-12.7c-1.2-9.8-9.4-15.9-17.5-15.9c-6.1,0-11.8,3.7-14.3,11.8c-4.5,15.1-6.1,29.8-6.1,42.8c0,4.6,0.2,9,0.7,13.3
	c-5.5,10.8-12.6,21.8-19.4,25.1c-6.9-9.8-9-20.4-9-31.4c0-15.1,4.1-30.6,5.7-46.1v-1.2c0-6.9-6.9-14.7-15.5-15.1h-0.8
	c-11,0.4-23.7,14.3-24.5,60v2.4c0,33.9,12.2,59.6,29,59.6c11.1,0,24.2-11.1,37.2-38.1c5.2,20.9,16.1,34.1,27.7,34.1
	c11.4,0,24.1-13.1,33.1-44.5c4.5-15.5,5.7-59.2,24.9-64.1C335.6,343.3,336.8,341.2,336.8,339.2z M621.7,308.2
	c-3.3,0-6.9,1.6-9.4,5.7c-1.2,2-1.6,3.7-1.6,5.7c0,5.3,4.9,9.8,12.7,9.8h0.8c5.7-2.4,8.2-6.9,8.2-11
	C632.3,313.1,628.2,308.2,621.7,308.2z M900.8,383.7c0,0.4-0.4,0.8-0.4,1.2c-6.1,19.6-14.3,60.4-40.4,60.4c-2.9,0-6.1-0.4-9.8-1.6
	c-14.3-5.3-19.6-18.8-20-35.1c-13.1,25.3-26.9,35.5-38.4,35.5c-10.4,0-18.7-7.8-22.8-20.1c-3.7,7.8-8.1,15-13.5,20.5
	c-4.5,4.9-9.4,6.9-14.3,6.9c-15.1,0-29.8-20.8-32.2-42.4c-11.8,29.8-23.7,41.2-33.5,41.2c-10.1,0-18-12.4-21.6-29.2
	c-12.6,25.3-25.2,35.7-36,35.7c-12.7,0-22.9-14.9-27-36.9c-5.2,14.1-12.3,28-24.7,35.9c-4.5,2.9-9.4,4.1-14.3,4.1
	c-12.7,0-24.5-9.8-29.4-22.4c-3.7-9.8-4.9-20.4-4.9-34.3c0-5.6,0.2-11.8,0.7-18.6c-3.4,2.9-7.4,4.2-11.8,4.2
	c-11.8,0-25.3-10.2-31.8-24.9c-7.3,5.7-21.2,72.6-22.4,81.2c-0.8,8.2-6.5,12.7-13.1,12.7c-3.7,0-8.2-1.6-11-6.1
	c-6.7-9.4-10.5-20.8-12.1-33c-13.6,22.3-30.1,31.8-45,31.8c-23.7,0-44.1-23.3-44.1-57.9c0-6.1,0.8-12.7,2-19.2
	c5.3-27.8,20.8-40.8,35.9-41.2c9.8,0,19.2,5.3,25.7,15.5c3.3,5.3,4.5,10.2,4.5,14.7c0,16.3-16.3,28.6-33.1,31.4
	c1.2,18,12.7,34.3,26.9,34.3c8.3,0,17.7-5.8,26.2-20.6c0-1.1,0-2.3,0-3.4c0-20.8,4.9-42,11-58.4c2.9-8.2,9.8-11.4,16.7-11.4
	c8.6,0,16.7,5.7,16.7,15.1c0,2-0.4,3.7-0.8,5.7c-4.1,14.7-7.3,29.4-7.8,44.9v8.6c0,3.3,0,4.9,0.4,4.9s2-5.7,4.9-16.7
	c3.7-14.3,13.5-31.8,13.5-47.3v-3.7c0-9,8.2-14.3,16.3-14.7c4.1,0,8.2,1.6,11.4,4.5c17.1,16.7,6.1,41.2,13.9,41.2
	c1.2,0,2.9-0.4,4.9-1.6c0.4-0.4,1.2-0.4,2-0.4c0.3,0,0.5,0,0.8,0.1c1.6-18.4,4.5-41.3,8.3-70.9c0.8-6.9,1.6-10.6,1.6-13.1
	c0-3.3-2-2.4-8.2-3.3c-8.2-1.2-14.7-1.6-20-1.6c-26.1,0-21.6,12.2-25.3,12.2h-0.4c-2.4,0-4.5-2-4.5-4.5c0-6.1,8.6-15.1,35.5-15.1
	c6.9,0,15.1,0.4,24.9,2c3.7-11.4,11-17.5,18-17.5c7.8,0,14.7,6.5,15.5,22c6.1,0.4,11.8,0.8,18,0.8c11.8,0,23.7-1.2,35.5-5.7
	c0.4,0,0.8-0.4,1.2-0.4c1.6,0,2.4,1.6,2.4,3.3c0,1.2-0.4,2.4-2,2.9c-14.7,6.1-29.8,8.6-45.3,8.6c-3.3,0-6.5,0-9.8-0.4
	c-1.2,17.5-8.6,39.6-11,94.7v11.8c0,15.9,0.4,42,2.9,44.9c1.2,1.2,2.4,2,4.1,2c7.8,0,19.6-13.2,28.9-38.8c-0.3-3.6-0.5-7.3-0.5-11.2
	v-2.4c0.8-45.7,13.5-59.6,24.5-60h0.8c8.6,0.4,15.5,8.2,15.5,15.1v1.2c-1.6,15.5-5.7,31-5.7,46.1c0,11,2,21.6,9,31.4
	c6.6-3.2,13.4-13.5,18.9-24c-0.1-1.4-0.1-2.8-0.1-4.2c0-27.3,10.6-57.1,38-64.9c2-0.4,4.1-0.8,5.7-0.8c10.2,0,18.4,6.9,19.6,6.9h0.4
	c4.5-28.6,8.2-60,19.6-86.9c2.4-5.3,7.8-7.8,13.1-7.8h0.8c8.2,0,16.7,5.7,16.7,14.7v1.2c-2.9,29.4-13.9,53.1-20.8,120
	c-1.2,11-1.6,19.6-1.6,26.5c0,14.3,2,20.4,5.7,20.4c4.4,0,10.8-9.6,17.2-24.5c0-0.1,0-0.3,0-0.4c0-24.5,14.3-69.4,42.8-73h3.3
	c10.6,0,26.5,6.9,30.6,17.5c4.5-10.6,11-14.3,17.5-14.3c8.6,0,16.7,8.2,16.7,17.1c0,1.2,0,2.4-0.4,3.7
	c-4.1,15.1-10.6,31.8-10.6,48.2c0,4.1,0.4,8.2,1.2,12.2c0.4,1.6,2,8.2,2,9.4v0.4h0.4c4.1,0,19.2-18.8,23.7-43.3
	c0.4-1.6,1.6-2.4,3.3-2.4S900.8,381.6,900.8,383.7z M362.1,384.5c17.1-4.5,23.3-14.7,23.3-21.2c0-4.1-2-6.9-5.3-6.9
	c-2,0-4.1,0.8-6.5,2.9C366.6,365.3,363.4,374.7,362.1,384.5z M711.9,364.1c-2-2.4-4.1-3.3-6.1-3.3c-11.8,0-24.1,35.1-24.1,57.5v2.9
	c0,1.2-0.4,2-0.4,3.3c0,2.4,0.8,4.1,2,4.1C689,428.5,705.8,400.4,711.9,364.1z M838,361.6c-1.6-7.3-4.5-10.2-7.8-10.2
	c-11.8,0-29.4,36.7-29.4,54.7c0,1.6,0,2.9,0.4,4.1c1.2,5.3,3.3,7.8,5.7,7.8c7.3,0,18.4-18.4,24.9-32.2
	C834.7,371.4,838,363.3,838,361.6z M340.1,169.9c10.6,0,26.5,6.9,30.6,17.5c4.5-10.6,11-14.3,17.5-14.3c8.6,0,16.7,8.2,16.7,17.1
	c0,1.2,0,2.4-0.4,3.7c-4.1,15.1-10.6,31.8-10.6,48.2c0,4.1,0.4,8.2,1.2,12.2c0.4,1.6,2,8.2,2,9.4v0.4h0.4c2.4,0,8.5-6.4,14-16.5
	c-0.1-2-0.2-4-0.2-6c0-20.8,4.9-42,11-58.4c2.9-8.2,9.8-11.4,16.7-11.4c8.6,0,16.7,5.7,16.7,15.1c0,2-0.4,3.7-0.8,5.7
	c-4.1,14.7-7.3,29.4-7.8,44.9v8.6c0,3.3,0,4.9,0.4,4.9s2-5.7,4.9-16.7c3.7-14.3,13.5-31.8,13.5-47.3v-3.7c0-9,8.2-14.3,16.3-14.7
	c4.1,0,8.2,1.6,11.4,4.5c17.1,16.7,6.1,41.2,13.9,41.2c1.2,0,2.9-0.4,4.9-1.6c0.3-0.3,0.9-0.4,1.5-0.4c5-18,15.9-33.5,34.5-38.8
	c2-0.4,4.1-0.8,5.7-0.8c10.2,0,18.4,6.9,19.6,6.9h0.4c4.5-28.6,8.2-60,19.6-86.9c2.4-5.3,7.8-7.8,13.1-7.8h0.8
	c8.2,0,16.7,5.7,16.7,14.7v1.2c-2.9,29.4-13.9,53.1-20.8,120c-1.2,11-1.6,19.6-1.6,26.5c0,14.3,2,20.4,5.7,20.4
	c4.6,0,11.3-10.4,17.9-26.3c-0.5-3.6-0.8-7.4-0.8-11.3c0-6.1,0.8-12.7,2-19.2c5.3-27.8,20.8-40.8,35.9-41.2
	c9.8,0,19.2,5.3,25.7,15.5c3.3,5.3,4.5,10.2,4.5,14.7c0,16.3-16.3,28.6-33.1,31.4c1.2,18,12.7,34.3,26.9,34.3
	c12.2,0,26.9-12.7,37.5-48.6c0.4-1.6,1.6-2,2.9-2c1.6,0,2.9,0.8,2.9,2.4v0.8c-14.7,49.8-39.6,69.8-61.2,69.8
	c-16.7,0-31.8-11.6-39.2-30.7c-2.1,5-4.6,9.9-7.3,14.3c-1-0.3-2.1-0.5-3.2-0.5c-1,0-1.9,0.2-2.6,0.4h-0.1l-1.4,0.5
	c-9.5,3.6-19.5,5.2-32.6,5.2c-0.8,0-1.7,0-2.5,0c-6.3-8-10.9-19.1-12.2-30.4c-1.8,4.6-3.6,8.6-5.4,12.4c-3-2.5-6.4-3.9-9.8-4.5
	c6.7-11.5,14.4-30.6,18.1-52.8c-2-2.4-4.1-3.3-6.1-3.3c-11.8,0-24.1,35.1-24.1,57.5v0.1c-5.8,2.6-10.9,7.8-14.4,14.8
	c-3.3-0.4-6.6-0.7-9.9-0.9c-3.5-8.8-5.5-20.2-5.5-32c0-4.6,0.3-9.3,0.9-13.9c-2.7,1.4-5.6,2.1-8.8,2.1c-11.8,0-25.3-10.2-31.8-24.9
	c-7.3,5.7-21.2,72.6-22.4,81.2c-0.8,8.2-6.5,12.7-13.1,12.7c-3.7,0-8.2-1.6-11-6.1c-5.3-7.4-8.8-16.1-10.8-25.5
	c-5.9,11-14.1,19.4-25.9,19.4c-2.9,0-6.1-0.4-9.8-1.6c-14.3-5.3-19.6-18.8-20-35.1c-13.1,25.3-26.9,35.5-38.4,35.5
	c-15.1,0-25.7-16.3-25.7-39.2c0-24.5,14.3-69.4,42.8-73H340.1z M660.1,222.5c17.1-4.5,23.3-14.7,23.3-21.2c0-4.1-2-6.9-5.3-6.9
	c-2,0-4.1,0.8-6.5,2.9C664.6,203.3,661.4,212.7,660.1,222.5z M328.7,244.1c0,1.6,0,2.9,0.4,4.1c1.2,5.3,3.3,7.8,5.7,7.8
	c7.3,0,18.4-18.4,24.9-32.2c2.9-14.3,6.1-22.4,6.1-24.1c-1.6-7.3-4.5-10.2-7.8-10.2C346.2,189.5,328.7,226.2,328.7,244.1z"/>
</svg>
