<svg xmlns="http://www.w3.org/2000/svg" width="100" height="100" overflow="visible" viewBox="0 0 100 100">
	<defs>
		<!-- cardinal -->
		<g id="avatar-0">
			<path fill="#B22222" d="M0 0h100v100H0z"/>
			<path fill="#FFFFFF" d="M14.3 78.3s15.6-13 19.9-16.1c0 0 .2-5.6 6-9.6s25-17.3 24.6-23.5c-.4-6.2-7.1-8.6-4.1-9.6 3-.9 15.8.4 16.5 3.6s2.8 4.7 3.8 4.7 8.1 3.4 5.4 4.5c-2.6 1.1-6.4 1.9-7.7 2.4-1.3.6 3.8 19.2-6.8 26.3s-12.4 8.8-11.6 9.8c.8.9 1.3 3.9 2.3 3.8.9-.2 7.9-2.3 9.8-.2 1.9 2.1 1.7 4.9 1.7 4.9H52.8s-1.3-2.6.6-3c1.9-.4 2.8-3.4.4-4.7-2.4-1.3-7.9-.6-10.1-2.4-2.3-1.9-3.4-.8-3.4-.8s-6.4 9.4-9.2 10c-2.8.6-4.9.9-5.1 0s.6-2.4.6-2.4-.8 1.5-4.1 1.9c-3.5.2-8.2.4-8.2.4z"/>
		</g>

		<!-- guinea pig -->
		<g id="avatar-1">
			<path fill="#661613" d="M0 0h100v100H0z"/>
			<path fill="#FFFFFF" d="M60.89 68.49a.38.38 0 0 0 .28 0c1.07-.09 2.1.28 3.19.25l3.88-.13a3.88 3.88 0 0 0 2.31-.55 4 4 0 0 0 .76-.83.57.57 0 0 0 .14-.28 8.42 8.42 0 0 0-.31-1.64 2.63 2.63 0 0 1 0-1.15.94.94 0 0 1 .79-.76c.42 0 .76.34 1.06.64 2 2 5 1.69 7.65 1.73 1.41 0 4.41.49 5.63-.44s.17-2-.66-2.16-8.15-3.32-11-7.31c0 0-2.17-17.13-13.14-20.95S44.83 32.3 43 33.29s-5 2.32-5.48 1.16c-.39-.91-.3-1.81-1-2.61a1.51 1.51 0 0 0-1.32-.57 1.92 1.92 0 0 0-1.11.73 7 7 0 0 0-1.23 2 2.4 2.4 0 0 1-.31.62 1.83 1.83 0 0 1-2.28.37 6.82 6.82 0 0 1-1.09-2 4.61 4.61 0 0 0-1-1.32 1.65 1.65 0 0 0-1.12-.5 1.32 1.32 0 0 0-1 .65 4 4 0 0 0-.43 1.18 10.1 10.1 0 0 1-.76 2.7c-.22.38-.59.74-.85 1.1-1.61 2.2-3.38 4.2-5.09 6.26a44.16 44.16 0 0 0-4.19 5.36c-.92 1.52-2.7 5.91-.58 7.13a.68.68 0 0 1 .23.18.6.6 0 0 1 .09.33c.39 3.91 6.27 4.48 9.29 4.41 1.4 0 2.8-.15 4.19-.27s2.23-.37 3.3.27 2.12 1.56 1.1 2.58c-.9.8-2.51 2.42-2.34 3.79S33.54 68 34.43 68h7.68a1.08 1.08 0 0 0 .71-.17 1.82 1.82 0 0 0 .36-.69 6.25 6.25 0 0 1 2.48-1.75c1.5-.66 2-1.66 2.66-1.16 1.27.94 3.5 1.19 5 1.44a27.1 27.1 0 0 0 9-.41c0 1.25-1.56 1.64-1.51 3a.33.33 0 0 0 .08.23Z" />
		</g>

		<!-- squirrel -->
		<g id="avatar-2">
			<path fill="#eb5b41" d="M0 0h100v100H0z"/>
			<path fill="#FFFFFF" d="M32.4 81.5H52s1-4.1-2.1-4.1-1-2.1-1-2.1 2.1-3.1 4.1-3.1 2.1 0 3.1 1 2.1 3.1 1 4.1c-1 1 0 4.1 0 4.1h17.5s0-6.2-7.2-6.2c0 0 0-7.2-2.1-10.3-2.1-3.1-1-5.2-1-5.2s2.1-5.2 1-7.2c0 0 1 1 3.1 1s2.1 4.1 3.1 3.1 5.2-3.1 4.1-6.2c-1-3.1-4.1-5.2-7.2-5.2-3.1 0-3.1-2.1-2.1-4.1 1-2.1 3.1-5.2 4.1-5.2 1 0 6.2-2.1 5.2-4.1-1-2.1-5.2-9.3-18.5-10.3 0 0-4.1-8.2-9.3-4.1S51.9 28 53 28c0 0 1 6.2-3.1 11.3s-6.2 9.3-7.2 8.2c-1-1 6.2-15.4-5.2-18.5s-12.4 1-10.3 2.1 5.2 0 4.1 2.1c-1 2.1-11.3 16.5-5.2 26.8s12.4 9.3 12.4 10.3-4.1 5.2-5.2 6.2c-.9.9-2 .9-.9 5z"/>
		</g>

		<!-- ant -->
		<g id="avatar-3">
			<path fill="#6b3626" d="M0 0h100v100H0z"/>
			<path fill="#FFFFFF" d="M82.41 45.41a21.44 21.44 0 0 0-8.32-4.6 13 13 0 0 0-4.8-.54 8.41 8.41 0 0 0-7 4.09 7 7 0 0 0-11.72 0 8 8 0 0 0-14.37.7s-.05 0-.06 0-.15-.31-.22-.47a8.83 8.83 0 0 0-3.2-3.85 25.29 25.29 0 0 1 1.6-3.84c.66-1.31 1.18-2.66 1.81-4a1.29 1.29 0 0 0 .17-.59 1.17 1.17 0 0 0-.13-.4 6.91 6.91 0 0 0-2.08-2.53 6.56 6.56 0 0 0-1.42-.84c-1.87-.83-4.55-1-6.26.28a1.25 1.25 0 0 0-.57 1.45c.24.46.83.57 1.35.64a17.17 17.17 0 0 1 2.73.64 2.69 2.69 0 0 1 1.65 1.07 2.12 2.12 0 0 1 .25.89 9 9 0 0 1-.66 3.14c-.31 1.05-.6 2.1-.88 3.16-.57-.07-1.14-.23-1.71-.32a9.32 9.32 0 0 0-2.74 0 26.16 26.16 0 0 1-.83-3.68c-.21-1.45-.57-2.85-.82-4.29a1.11 1.11 0 0 0-.21-.58 1.37 1.37 0 0 0-.33-.25 7.15 7.15 0 0 0-3.16-.86 7.61 7.61 0 0 0-1.65.14c-2 .41-4.28 1.83-4.94 3.86a1.26 1.26 0 0 0 .38 1.51 1.65 1.65 0 0 0 1.47-.25 19 19 0 0 1 2.64-1.07 2.72 2.72 0 0 1 2-.08 2.15 2.15 0 0 1 .72.58 8.91 8.91 0 0 1 1.29 2.94c.33 1 .68 1.92 1 2.87a11.69 11.69 0 0 0-1.46 1.07 8.62 8.62 0 0 0-1.67 1.89 8.72 8.72 0 0 0-1.34 4.92 45.57 45.57 0 0 0 .67 6.59 14 14 0 0 0 2.48 6.1 5.19 5.19 0 0 0 2.45 1.91c1.63.58 2.95-.09 4.18-1a21 21 0 0 0 5.15-6c.89-1.49 1.62-3.07 2.42-4.6a8.19 8.19 0 0 0 4.23 4.32c-.79 1.12-1.57 2.15-2.27 3.23a2.89 2.89 0 0 0-.52 1.38c-.06 1.64 0 3.29 0 4.94a1.91 1.91 0 0 0 .85 1.62 1.88 1.88 0 0 0 2 .14 1.93 1.93 0 0 0 1.1-1.87c0-1.4-.31-2.91.11-4.18s1.59-2.33 2.37-3.53a3.21 3.21 0 0 1 2.06-1.64 9 9 0 0 0 1.88-.91l.49-.27v10.41a2 2 0 0 0 .88 1.8 1.86 1.86 0 0 0 2 .12 1.94 1.94 0 0 0 1.08-1.82V53.88a7.6 7.6 0 0 0 4.24 1.24c.17 0 .38.25.5.44 1 1.53 1.94 3.07 2.88 4.63a2.09 2.09 0 0 1 .27 1v3.68a2 2 0 1 0 3.95 0v-3.76a4.76 4.76 0 0 0-.86-3.09c-1-1.43-1.84-2.92-2.74-4.37l1.45-1.55c.06 0 .1.07.12.11a8.58 8.58 0 0 0 7.45 4.85.82.82 0 0 1 .54.41c.29.62.49 1.27.77 1.89a10.93 10.93 0 0 1 1.24 5.66 1.85 1.85 0 0 0 1.87 2 1.93 1.93 0 0 0 2.05-1.87c.07-1.84.17-3.68-.75-5.4a24.59 24.59 0 0 1-1.05-2.59c2.16-.1 4.24-.15 6.32-.3 2.59-.18 4.65-1.19 5.38-3.95v-1.62a11.26 11.26 0 0 0-3.75-5.88Z" />
		</g>

		<!-- dog -->
		<g id="avatar-4">
			<path fill="#874f31" d="M0 0h100v100H0z"/>
  		<path fill="#FFFFFF" d="M49.34 81.59c-.56-.07-1.13.16-1.69.07a.48.48 0 0 1-.38-.2.46.46 0 0 1 .07-.45 2 2 0 0 1 .9-.62 20.57 20.57 0 0 0 5.06-3.16c1.39-1.19 2.93-2.29 4.29-3.49s2.12-2.56 3.53-3.57c.47-.34 1.11-.64 1.6-.33a1.39 1.39 0 0 1 .46.58c.53 1.12.24 1.93.23 3.06a26.8 26.8 0 0 0 .68 4.23 20.68 20.68 0 0 1 .26 4.78 2.27 2.27 0 0 0 0 .78 1.51 1.51 0 0 0 1.1 1 4.61 4.61 0 0 0 1.39.09c1.94-.07 4.13.64 6 0 2.33-.81-.62-3.59-1.55-4.5a6.26 6.26 0 0 1-1.11-1.25 4.85 4.85 0 0 1-.49-1.43c-.7-3.12-1.84-6.71-1.56-9.93a6.83 6.83 0 0 1 .57-2.27 12.74 12.74 0 0 1 1.36-2.12c2.82-3.89 5-8.69 4.08-13.4A35.37 35.37 0 0 0 72 41.82a11 11 0 0 1 0-8.26c1-2.55 3-3.91 5.35-5.33a8.13 8.13 0 0 0 1.85-1.33c1.23-1.31 1.32-3.29 1.34-5.09 0-.85-.13-1.93-1-2.18a2.05 2.05 0 0 0-1.36.24 30.82 30.82 0 0 1-5.93 1.83 4.24 4.24 0 0 1-2.12 0c-.38-.12-.71-.34-1.08-.48a5.63 5.63 0 0 0-2.71-.08 27.55 27.55 0 0 0-5.7 1.21A8.41 8.41 0 0 0 57 25.02c-1.12 1.09-1.14 2.86-1.86 4.24-.83 1.61-2.5 2.56-3.88 3.74a2.31 2.31 0 0 0-.95 1.47c-.07 1 1 1.65 1.92 1.81a11.69 11.69 0 0 1 2.86.42c.15.06-.69 4.36-.74 4.9a8.31 8.31 0 0 1-1.58 4.85c-3.69 5-9.4 8-13.7 12.42a33.11 33.11 0 0 0-8 14.38c-.91 3.39-6.51 4-9.37 3.15a8 8 0 0 1-5.56-6 3.61 3.61 0 0 0-.77-2.38 1.8 1.8 0 0 0-1.86-.16 3.51 3.51 0 0 0-1.42 1.31c-1.33 2-1.62 4.6.08 6.32 2 2 3.88 3.75 6.64 4.7a21.06 21.06 0 0 0 8.72.83 21.81 21.81 0 0 1 2.29-.12c.39 0 .79.13 1.18.14s.71-.18 1 0a.59.59 0 0 1 .29.53 1.81 1.81 0 0 1-.26.61 1.53 1.53 0 0 0 .32 1.74c.82.77 2.7.49 3.76.49h14.74c.62 0 1.7 0 2-.71s-.55-1.23-1-1.52a5 5 0 0 0-2.51-.59Z" />
		</g>

		<!-- toucan -->
		<g id="avatar-5">
			<path fill="#f07f3a" d="M0 0h100v100H0z"/>
			<path fill="#FFFFFF" d="M43 25s18-3 27-1 13 7 11 8c0 0 2 2-5 2s-27 2-33 4l-1 3c0 3 1 6 6 9s12 11 14 17 0 4 0 4 2 5 0 6c0 0 0 4-2 4l-1 3-3 1a73 73 0 0 1-9-4l-1 2 1 2H25s-3-3 0-4l9-1c1 0 3-1 2-2v-1s-11-5-16-14 2-20 2-22l-1-5c-1-2-5-11 5-14s15 2 16 3a3 3 0 0 0 1 0Z" />
		</g>

		<!-- fox -->
		<g id="avatar-6">
			<path fill="#d25d1e" d="M0 0h100v100H0z"/>
			<path fill="#FFFFFF" d="M36 83.6h15s2.8-.7 1.5-2.8c-1.2-2.1-2.1-2.2-2.9-2.5-.7-.3-1.2-.8-1.2-.8s-.4-.9.9-1c1.3-.1 2 0 2.6.6.6.6 4.2 2.2 4.5 2.9.3.7.6 3 .6 3h13.8s1.1-3.8-1.2-5.4-3.8.8-6.8-2.5-4.7-3.8-3.1-8.4c1.6-4.6 6.3-10.3 8.8-9.5 2.4.8 2.9 1.9 3.6 2.3.7.4 2.7.5 4.6-2.4 1.9-2.9-.4-6.3-2-6.3s-8 .7-8.8.7-1.3-.5-1.2-1.3c.2-.8 2.6-3.8.7-5.6-1.9-1.9-2.9-1.2-2.9-1.7s-.4-2.5 2.8-2.9c3.2-.4 4.9 1 7.1-.6 2.1-1.6 2.5-3.7 1-3.8-1.5-.1-4.3 0-5.8-1.8s-3.7-2.7-3.8-3.8c-.1-1.2-.4-3.6-2.2-3.8-1.8-.3-2.9-.7-2.8-2.2.2-1.5.1-3.1.7-3.7.6-.5 2.6-2.6-.6-1.5s-5.6 1.4-8.8 4.7C47 26.8 44.6 31 44 31.7c-.6.7-1.6 1.2-1.2 2.1.4.9 4.2 5.9 3.4 14S42.8 61 42.3 60.2c-.5-.8 0-7.5-1.6-10.1-1.6-2.6-8-5.3-6.9-9.3s3.8.5 3.9-1.8c.1-2.3-1.5-5.7-5.9-4.1-4.4 1.6-11.8 7.3-9.8 16.5s4.8 11.3 8.3 14.2c3.5 2.9 9.5 4.7 8.8 6.4-.7 1.7-4.7 8-4.4 9.1.2 1.5.3 2.5 1.3 2.5z"/>
		</g>

		<!-- monkey -->
		<g id="avatar-7">
			<path fill="#a67653" d="M0 0h100v100H0z"/>
			<path fill="#FFFFFF" d="M64 57a14 14 0 0 0-5 1v-7l1-2a2 2 0 0 1 1 0 24 24 0 0 0 7 0 13 13 0 0 0 2 0 11 11 0 0 0 4-1 11 11 0 0 0 3-3 9 9 0 0 0 2-3 4 4 0 0 0-1-4 11 11 0 0 0-2-2 3 3 0 0 1-1-2 7 7 0 0 0-1-3 25 25 0 0 0-2-2 11 11 0 0 0-4-4c-3-2-6-2-10-2a37 37 0 0 1-8 0 3 3 0 0 0-1-1l-2 2c0 4 0 7-2 11-2 7-10 10-13 17a16 16 0 0 0 5 20l1 1a1 1 0 0 1 0 1l-5 1a14 14 0 0 1-7-3c-4-3-4-8-3-12l6-12c2-4 5-8 5-12a13 13 0 0 0-1-5 12 12 0 0 0-8-8 7 7 0 0 0-5 0 4 4 0 0 0-2 4 5 5 0 0 0 2 4 23 23 0 0 1 4 2c3 3 2 7 1 10l-5 10a28 28 0 0 0-1 7c0 5 0 10 3 14a13 13 0 0 0 7 3 40 40 0 0 0 8 1h25a6 6 0 0 1 1 0h1l7-1a5 5 0 0 0 1 0 3 3 0 0 0 2-2 5 5 0 0 0 0-3 6 6 0 0 0-1-2 4 4 0 0 0-3-1 7 7 0 0 0-3 1c1-1 4-3 4-5a11 11 0 0 0-1-4 11 11 0 0 0-2-2 6 6 0 0 0-4-2Z" />
		</g>

		<!-- cat -->
		<g id="avatar-8">
			<path fill="#DB8A34" d="M0 0h100v100H0z"/>
			<path fill="#FFFFFF" d="M35.1 68.9s-11.6-6.5-11.4-17.6c.2-11 14.2-14.5 16-16 1.8-1.5 2.3-1.9.8-4.2-1.5-2.3-5.1-5.5-2.1-7.3s8.7-.1 10.1 4.8 2.1 8.5-6.2 13.9S27.4 53 35.4 58.9c0 0-.3-7.5 4.7-12.5s10.5-10 10.7-11.6-1-14.1 8.2-13.9c0 0 2.6-8.2 3.6-6s1.5 6 1.5 6 3 .5 3.5 1.5.7 2.4 2.1 3.3c1.3.8 3.5.2 2.9 3 0 0 .6 4.2-3.9 5-4.5.7-6.7 2.2-6.5 4 .1 1.8.2 5.6.2 5.6s7.9 5.8 7.9 7.1.7 8.5-.8 8.7c-1.6.2-4.4.3-4.6-2.2-.2-2.5.4-2.6.4-2.6L61.7 52s-.8 7-4.1 10.2c0 0 3.6 6.2-1.5 13.3l4 6.5s6.9-1.2 6.7 4.4h-9.9L47 76.2s-.8-3.5-.5-4.2c.4-.7-3.2 5.1-6.1 6.2 0 0 1.7 4.4 1.9 4.7.2.4 5 .4 5 3.5H36.4s-1.6-4.2-2.2-5.6c-.6-1.3-1.6-5.8-1.3-7.3s2.2-4.6 2.2-4.6z"/>
		</g>

		<!-- otter -->
		<g id="avatar-9">
			<path fill="#D2A467" d="M0 0h100v100H0z"/>
			<path fill="#FFFFFF" d="M21.5 82.2s3.2 1.8 8.6 1.6C35.5 83.5 39 81 39 81v2.4h11.3s1.4-2.2-.3-3.2c-1.7-.9-2.7-.8-2.3-1.5.4-.7 1.4-2.7 4.4-2s2.7 1.3 2.9 2.7c.2 1.4 1 3.9 1 3.9h12.5s1.7-2.2-1.2-4.4c-2.8-2.1-5.1-4.5-6-6.8-.9-2.3-1.9-3-1.9-3s2.8-2.6 2.6-5.7c-.2-3.2.4-3.4 1.1-3.5.7-.1 3 .1 3.7 1 .7.9 1.2 1.7 2.2 1.6 1-.1 1.5-1.1 2-1.6.5-.4 2.8-4.2 0-6.9s-6.1-2.9-7.8-2.7c-1.7.2-1.5-5.7 4.1-9.9 5.6-4.1 10-9.9 9.4-11.8-.6-1.9-2.7-1.9-3.1-2.7-.4-.8-.8-2.3-1.8-4.2-1-1.9-4.2-4.5-8.9-4.2-4.7.3-5.9 3.6-7.4 3.4-1.5-.2-3.6-.4-4.4-.1-.8.3-.7 3-.3 3.6s-.9 6.8.3 10.8c1.2 4-5.2 10.3-7.4 11-2.2.7-8.8 3.3-8.9 11s.7 10.7-.7 12.5c-1.4 1.8-6 7.2-10.3 8.6-4.2 1.6-2.8 2.2-2.3 2.9z"/>
		</g>

		<!-- skunk -->
		<g id="avatar-10">
			<path fill="#544a39" d="M0 0h100v100H0z"/>
			<path fill="#FFFFFF" d="M92.21 47.83c-1.56-1.3-3.11-2.63-4.71-3.83a12.94 12.94 0 0 0-6.39-2.64 1.82 1.82 0 0 1-1-.52c-.8-.84-1.54-1.75-2.33-2.61a2.43 2.43 0 0 0-4.22.63c-.68 1.48-1.31 3-2 4.44a2.13 2.13 0 0 1-.78.85 15.27 15.27 0 0 1-7.73 2H44.59a17.58 17.58 0 0 0-8.83 2.21 1.56 1.56 0 0 1-.93.15 6 6 0 0 1-5.17-6.05v-9.6a15.34 15.34 0 0 0-3.27-9.28C24 20.39 20.78 19 17.16 17.7a3.6 3.6 0 0 0-1.57-.3 1.21 1.21 0 0 0-1.11 1 1.84 1.84 0 0 0 .62 1.25 13.78 13.78 0 0 1 1.83 2.76 1.09 1.09 0 0 1 .16.74c-.17.66-1.19.5-1.76.89a1.35 1.35 0 0 0-.28 1.66 9.15 9.15 0 0 0 1.06 1.49 4.84 4.84 0 0 1 .77 3.94c-.5-.5-1.46-.05-1.66.63a2.63 2.63 0 0 0 .5 2 5.28 5.28 0 0 1 .92 1.91 1.36 1.36 0 0 1-1 1.6c-.17 0-.36 0-.49.09a.55.55 0 0 0-.11.49 48.12 48.12 0 0 0 1.26 5.07c.73 3.62-.1 7.82 2 11.07a18.27 18.27 0 0 0 8.53 6.71l.44.18c0 1.37-.09 2.72 0 4.1a36.32 36.32 0 0 0 .74 6.66 12.33 12.33 0 0 1 .39 1.92 8.89 8.89 0 0 1-.27 2.61c-.12.66-.25 1.31-.38 2a8.61 8.61 0 0 0-.36 1.34c0 .93 1 1.63 1.74 2a4.85 4.85 0 0 0 2.1-.14 35.71 35.71 0 0 1 4.27-.12 2.57 2.57 0 0 0 1.47-.38 2 2 0 0 0 .61-1.68c0-.62-.22-1.23-.26-1.84-.08-1.11.56-1.63 1.15-2.45a3.23 3.23 0 0 1 2.25-1.63s.1 5.68.1 6.14a1.39 1.39 0 0 0 .12.7 1.22 1.22 0 0 0 .68.49 10.75 10.75 0 0 0 4.27.45l3.35-.11a1.52 1.52 0 0 0 .56-.08 1.18 1.18 0 0 0 .51-1.42 10.51 10.51 0 0 0-.7-1.48 5.41 5.41 0 0 1-.06-3.49 24.24 24.24 0 0 0 1-3.89h3.79a27.44 27.44 0 0 1 3 .34.65.65 0 0 1 .53.25.87.87 0 0 1 .05.22c.14 1.54.29 3.07.42 4.6.1 1.31-.06 2.6-.08 3.91a.58.58 0 0 0 .08.37.66.66 0 0 0 .29.17 17.35 17.35 0 0 0 6.86.82 1.66 1.66 0 0 0 1.38-.63c.35-.62-.16-1.34-.42-2a5.18 5.18 0 0 1 0-3 1.46 1.46 0 0 1 .27-.67.57.57 0 0 1 .65-.2.91.91 0 0 1 .36.58 18.4 18.4 0 0 0 2 4.35 3 3 0 0 0 2.09 1.64 9.62 9.62 0 0 0 1.67-.31c1.16-.15 2.39.54 3.49.11A1.88 1.88 0 0 0 78 78.86a5.24 5.24 0 0 0-.58-1.16 12.72 12.72 0 0 1-1.16-5.61c-.1-2-.58-4-.48-6a10.55 10.55 0 0 1 1.79-5.74A8.15 8.15 0 0 1 84 57a17 17 0 0 0 3.85-.33 7.19 7.19 0 0 0 5.26-6.8 2.51 2.51 0 0 0-.9-2.04Zm-17.9 7.65a19.79 19.79 0 0 1-10.65 3.23H44.45A12 12 0 0 0 32.24 69s-.05.07-.08.11H32c.15-2.93.24-5.87.47-8.8A4.74 4.74 0 0 1 35 56.5a17.59 17.59 0 0 1 9.18-2.65h18.6a16.15 16.15 0 0 0 9-2.51 2.45 2.45 0 1 1 2.57 4.14Z" />
		</g>

		<!-- bee -->
		<g id="avatar-11">
			<path fill="#dfb231" d="M0 0h100v100H0z"/>
			<path fill="#FFFFFF" d="M30.1 73.3s1.1 1.5 3.1 1.8c2 .3 21.9.5 21.9.5s11-3.8 11.2-13.8c0 0 3.2 2.4 6.4 0s4.1-6.2-1.3-11.7c0 0-.1-1.4 1.4-1.4s4.3.8 4.4-1.1c.1-1.9-2.6-3.4-4.5-3s-3.1 2-4.2 4-3.7 2-4.1 4.7c0 0-3.5-5.2-8.9-3.2 0 0-1.5-28.4-15.2-24.1 0 0-4.2 1.3-5.1 7.2 0 0-15.8-3.8-16.9 4.6s6 17.3 18.2 16.9c0 0-10.3 7.5-8.6 15.9L25.5 73l4.6.3z" />
		</g>

		<!-- rooster -->
		<g id="avatar-12">
			<path fill="#c49f19" d="M0 0h100v100H0z"/>
			<path fill="#FFFFFF" d="M65 87h8s1-3-1-4l-10-3c-2-1-4 0-4-2v-5s12-3 17-15 2-16 2-16v-2c1-1 1 1 3 1s2-3 1-5a5 5 0 0 1-1-2s0-2 2-2 6 0 5-3a9 9 0 0 0-3-3l-5-2c-1-1-2-6-7-5s-8 0-9 3l-1 3c-1 1-3 17-12 22s-3-6-4-9-5-15-18-14-14 6-14 8a6 6 0 0 0 2 4c1 0 2 1 1 2s-3 3-2 4 3 2 2 3a4 4 0 0 0-3 4c0 2 3 2 3 3s-3 3-2 6 2 3 3 3h2c0 1 2 5 5 6h6c1 1 7 11 21 8v4c-1 1-10 6-5 8Z" />
		</g>

		<!-- pigeon -->
		<g id="avatar-13">
			<path fill="#e3c642" d="M0 0h100v100H0z"/>
			<path fill="#FFFFFF" d="M51.13 76.9s7.72-.62 9-.46 10 1.62 10.5-1.55-.23-5.25-2.24-5.48a20.39 20.39 0 0 1-5.33-1 3.88 3.88 0 0 1-1.54-1.32s8.72-4.32 12.89-10.62 5.41-9.87 4.72-14a23 23 0 0 0-1.24-5.24 7.23 7.23 0 0 0 3.4-2.47C82.33 33 78.47 29.4 78 29.17s-1.46-7-9.65-5.41-9.66 7.42-10 7.8-1 2.24-2.94 3.48-9.73 6.72-13.59 11.35-8 10.89-12.13 12.9-6.95 6.18-7.1 7.8c0 0-3.32 3-4.25 4s-3.17 2.54-2.63 6.33c0 0 4.48.7 7.5-.77a29 29 0 0 0 5.4-3.4c.62-.46 7.49-3.86 8-4.09s4.79-.54 5.95-1.93c0 0 3.74 1.93 6.15 2.16s1.65 1.16 1.26 1.47-1 2.54-1.26 2.77-1.37 2.73 2.42 3.27Z" />
		</g>

		<!-- possum -->
		<g id="avatar-14">
			<path fill="#757468" d="M0 0h100v100H0z"/>
			<path fill="#FFFFFF" d="M32.07 62.13c0 1.93-1 5.44 1.21 6.57 1.25.65 3.28.25 4.68.38a16.41 16.41 0 0 0 3.13-.08c.53-.06 2.69 0 3-.37s-.37-1.32-.66-1.72a4.69 4.69 0 0 1-1.07-2.44 2 2 0 0 1 .1-1.15c.47-.85 3.52-.31 4.39-.34l1.57-.07 1.89-.11a28.41 28.41 0 0 0 3.7-.31 2.29 2.29 0 0 1 2.39.78 4 4 0 0 1 .38 1.93 8.84 8.84 0 0 0 .21 2 1.64 1.64 0 0 0 .18.54 1.74 1.74 0 0 0 1.53.58q4.38.14 8.76-.12a.85.85 0 0 0 .35-.08.68.68 0 0 0 .29-.6 4.34 4.34 0 0 0-.92-2.08 3.4 3.4 0 0 1-.44-2.31 7.9 7.9 0 0 1 2-3.59 6.48 6.48 0 0 1 4-2.56 28.11 28.11 0 0 1 6.67-.17A24.27 24.27 0 0 1 85 58a15.34 15.34 0 0 0 1.76.63 6.89 6.89 0 0 0 5.3-1.38 1.57 1.57 0 0 0 .6-.6c.3-.66-.29-1.35-.77-1.89a9.71 9.71 0 0 1-1.56-2.35 19.35 19.35 0 0 1-1-3.06L88 44.62c-.38-1.36-.51-2.9-1-4.2a3.53 3.53 0 0 0 2.52-2.09 3.15 3.15 0 0 0-.52-3.19 2.85 2.85 0 0 0-3.09-.8A2.71 2.71 0 0 0 84.29 37a18.53 18.53 0 0 0-2.7 0 10.23 10.23 0 0 0 .51-2.48 3.44 3.44 0 0 0-.72-2.37 4.94 4.94 0 0 0-3.58-1.24 4.91 4.91 0 0 0-2 .19 3.27 3.27 0 0 0-1.89 2.47 6.94 6.94 0 0 0 .31 3.22A19.62 19.62 0 0 1 68 35.32s-15-8.15-28.34-.69c-3.16 1.77-7.21 4.06-9.17 7.17A19.89 19.89 0 0 1 20 50.08c-3.92 1.52-8.43 3.12-11 6.68-1.28 1.78-1.52 3.64-1.75 5.75-.2 1.81 2 3.31 3.52 4.08a12.39 12.39 0 0 0 2.94.91 7 7 0 0 0 4.22 0c.2-.09.41-.23.44-.45s-.28-.47-.54-.58c-1.15-.47-2.36-.76-3.51-1.2a6.87 6.87 0 0 1-3.05-2c-1.9-2.42-.1-5.11 2.14-6.42 3.14-1.83 6.62-1.91 10.13-2a10 10 0 0 1 3.81.24c1.32.54 1.66 2 2.65 2.84a6 6 0 0 1 2.07 4.2Z" />
		</g>

		<!-- stoat -->
		<g id="avatar-15">
			<path fill="#BDB74C" d="M0 0h100v100H0z"/>
			<path fill="#FFFFFF" d="M36.6 82.4h29.2s-1.4-5-8.1-4.6c0 0 1.5-5.9-4.5-8.5 0 0 3.7-6.3 5.5-15.4 0 0 2.4.4 3.2 3.2s.8 4 2.6 3.8 3.7-9.3-1-13.3c0 0 1.2-1.2 1.7-5.5l-.5-3.6s1.8-5.4 1.8-7.2c0 0 6.2.6 8.2-.5s.6-2.6 0-2.8-2.9-9.7-11.4-9c0 0-3.3-3.2-4.4-.9s-1 2.3-1 2.3-3.1 1.8-3.8 6.5-.9 12.3-7 19.1S35.4 60.6 38 78.4c0 0-13.4-10.5-13.6-8.5s5.9 10.6 12.2 12.5z"/>
		</g>

		<!-- dinosaur -->
		<g id="avatar-16">
			<path fill="#808536" d="M0 0h100v100H0z"/>
			<path fill="#FFFFFF" d="M32 53a28 28 0 0 0 0 5 12 12 0 0 0 2 3 12 12 0 0 0 2 2 12 12 0 0 0 2 1c-2 3-4 6-4 10a4 4 0 0 0-1 1 2 2 0 0 0-1 2h13l1-2 4-1 4 2a31 31 0 0 0 3 1h25a2 2 0 0 0 0-3h-2l-1-1v-1l-1-2a5 5 0 0 0-3 1h-2a1 1 0 0 1 0-1c0-2 2-3 1-5 0-2-2-2-3-2h-3a2 2 0 0 1 0-2 9 9 0 0 1 0-2 3 3 0 0 0 1-1 2 2 0 0 0-2-2 12 12 0 0 0-2 0h-1c0-2 2-5 1-7a3 3 0 0 0-2-2 14 14 0 0 0-2 1 2 2 0 0 1-2-1v-4l-2-2a16 16 0 0 0-4 1 3 3 0 0 1-1 0l-1-3a6 6 0 0 0 0-3 3 3 0 0 0-2-1h-5a3 3 0 0 1-1-3 34 34 0 0 0 0-3 6 6 0 0 0-2-4 13 13 0 0 0-4-2h1a16 16 0 0 0-6 0 4 4 0 0 1-2-1 5 5 0 0 1-1 0 5 5 0 0 0-3-1 4 4 0 0 0-2 1l-2 2-1 1a9 9 0 0 0-6 3 6 6 0 0 0-2 2l1 5a2 2 0 0 0 2 1 1 1 0 0 1 1 0v1a3 3 0 0 0 2 2 2 2 0 0 0 1 1v-1h9a2 2 0 0 1 1 0 2 2 0 0 1 0 2 19 19 0 0 0 1 4l-1 3h-2a8 8 0 0 0-3 0 4 4 0 0 0-1 6c1 1 2 0 2-1a4 4 0 0 1 4-1 2 2 0 0 1 1 0 1 1 0 0 1 1 1Z" />
		</g>

		<!-- worm -->
		<g id="avatar-17">
			<path fill="#a7bf4e" d="M0 0h100v100H0z"/>
			<path fill="#FFFFFF" d="M88 32a6 6 0 0 0-5-1c-5 2-5 6-7 10a16 16 0 0 1-14 11c-7 1-13-4-20-4a14 14 0 0 0-8 4 28 28 0 0 0-3 2h-1v-1 1a31 31 0 0 0-4 5 3 3 0 0 0 0 4 7 7 0 0 1-3 3c-4 2-8-2-12-4H9a1 1 0 0 0 0 2 17 17 0 0 0 5 8 12 12 0 0 0 15-1 14 14 0 0 0 2-2 1 1 0 0 0 1 0l3-3 2-5v-1a7 7 0 0 1 4-3c5 0 10 6 14 7a26 26 0 0 0 16 2c12-3 19-15 20-26 0-3-1-6-3-8Z" />
		</g>

		<!-- seahorse -->
		<g id="avatar-18">
			<path fill="#81b029" d="M0 0h100v100H0z"/>
			<path fill="#FFFFFF"  d="M41 35a12 12 0 0 0 4 1 9 9 0 0 0 3-1h1v1l-2 2-2 2a30 30 0 0 0-3 5 18 18 0 0 0-1 8 17 17 0 0 0 4 11l5 5c2 2 4 5 4 8a5 5 0 0 1-5 5 6 6 0 0 1-6-3 5 5 0 0 1 0-4l3-2a2 2 0 0 0 0-1 2 2 0 0 0 0-2 2 2 0 0 0-1 0 8 8 0 0 0-1 0 7 7 0 0 0-2 1 9 9 0 0 0-3 7 9 9 0 0 0 2 7c5 4 11 4 15 1a13 13 0 0 0 6-13l-1-11v-2a5 5 0 0 1-1-2h2a10 10 0 0 1 3 1 10 10 0 0 0 1 1 3 3 0 0 0 4-1 2 2 0 0 0 0-1 13 13 0 0 1 0-2l1-2a3 3 0 0 0 0-2 4 4 0 0 1-1-2v-1l1-1a4 4 0 0 0-1-3 2 2 0 0 0-2 0 17 17 0 0 0-3 1 18 18 0 0 1-2 1h-1v-3l1-5a49 49 0 0 0-1-8 18 18 0 0 0-4-11 14 14 0 0 0-9-4 20 20 0 0 0-3-1 6 6 0 0 1-1 0h-2a1 1 0 0 0 0 1c0 1 0 4-2 3l-2-1a1 1 0 0 0-1 0 1 1 0 0 0 0 1 20 20 0 0 1 0 7 6 6 0 0 1-3 5c-2 0-3 1-4 3a3 3 0 0 0 0 2 2 2 0 0 0 1 2 3 3 0 0 0 2-1l2-1a6 6 0 0 1 3-1 7 7 0 0 1 2 0Z" />
		</g>

		<!-- toad -->
		<g id="avatar-19">
			<path fill="#556b2f" d="M0 0h100v100H0z"/>
			<path fill="#FFFFFF" d="M38.1 83.6H69s.9-6-3.4-7.6-6.1 1.4-9.3 1.3c-3.2-.1-4.4-.2-4.6-1.7-.2-1.5 5.8-1.9 8.3-3.4 2.5-1.5 4-4 3.5-7.3-.6-3.3-1.8-4.7-.5-6.3 1.3-1.6 6-.6 8.3-.5 2.3.1 5.3-.1 5.3-3.5s-4.7-3.1-4.7-3.1 1-2.5-1.3-2.9c-2.3-.4-2.9 2.4-3.5 2.4-.6 0-7.7 1.6-8.9-2 0 0-.1-1.6 3.2-2.7 3.3-1.1 5.4-3.9 4.7-7.3-.7-3.5-.4-4 1-4.4 1.4-.4 6.1-3.2-1-6.8 0 0 2.7-7.9-2.8-9-5.4-1.1-7.5 2.3-7.5 2.3s-10.6.4-12.6 1.3c-2.1.9-5.6 2.3-5.6 6.2s3.1 5.5 2.9 6.2c-.2.7.4 1.2-1.6 1.9s-6.4 2.7-5.6 4.8c.8 2.2 1.9 2.1 1.9 2.1s-8.1 5.1-8.2 17.3c-.1 12.1 5.7 17.6 11.8 18 0 0 1.2.7.5 1.1-.8.3-4 2.1-1.2 3.6z"/>
		</g>

		<!-- frog -->
		<g id="avatar-20">
			<path fill="#35402c" d="M0 0h100v100H0z"/>
			<path fill="#FFFFFF" d="M50.3 83.1h19s1.8-2.2.3-3.8c-1.5-1.6-3.2-1.3-3.2-1.3s-1.5-1.6-2.7-1.3c-1.3.3-2.1 1-2.1 1s-1.9-.3-1.1-1.6c.7-1.3 9.4-9.7 7.4-13.8-2-4-8.4-3-8.4-3s.5-4.8-1.2-11.4c0 0 5.6-2.6 7.5-15.8 0 0 3.6-1.7 3.9-3.6 0 0 2.2-2.5 1.8-4.3-.4-1.8-1.3-1.2-1.3-1.2s-.3-3.4-2.4-2.8c0 0-1.7-1.6-2.5-.6-.8 1.1.1 5-1.7 6.3-1.9 1.3-.5-1.7-1.4-2.2-.9-.5-2.6.1-2.7 1.3-.1 1.3.7 2.6 1.5 3.2.8.5 1.8 1.5.3 4.4s-5.5 7.9-6.7 7c-1.2-.9-2-2.1-1.2-4.2.9-2.1 4.3-5 3-7.5-1.3-2.4-5.7-4.7-5.7-4.7s.3-5.6-4.4-5.2c-4.7.3-4.9 3.6-4.9 3.6l-2-.1s-.7-3.1-3.8-2.2c-3.1.9-2.4 5-2.4 5S30 26.5 30 27.9c-.1 1.3 1.1 1.9 1.1 1.9s-.1 2 3.4 3.9c0 0 1.9 5.4 4 6.3 2.1.9 1.4 1.7 1.4 1.7s-2 4.2-2 6.1c0 2 .3 2.4-.9 1.7-1.1-.7-2.6-1.1-3-3.2-.4-2.1-1.6-2.8-3.6-2.4s.6 2.9.6 2.9l.2.9s-4.1-.3-5.3-1.9c-1.2-1.5-2 .1-1.9 2 0 0-1.1 2.6.5 3.6 0 0-.5 1.9.3 2.4s2.8.7 2.8.7.2 1.9 7.5.5l2.9 2 .2 4s-9.3-1.1-11.4 3.3c-2.1 4.4 6.7 11.2 6.7 11.2l.5 1.4s-1.1 1.1-1.7.7-1.2-1.1-2.5-1.3c-1.3-.1-3.8 1.6-3.8 1.6s-3.2-.1-3.2 1.6c-.1 1.7 1.3 3.4 1.3 3.4h20s.5-4.2-.8-7.2-2.3-4.4-2.3-6.5c0 0 2.7 4.3 7.4 3.9s4.5-1.8 4.5-1.8-.2 3.3-2.6 6.9-1.1 4.8-1.1 4.8h1.1z"/>
		</g>

		<!-- lizard -->
		<g id="avatar-21">
			<path fill="#7cc44f" d="M0 0h100v100H0z"/>
			<path fill="#FFFFFF" d="M47.3 83.6h12.9s1.5-.8 0-2.6-2.8-2.8-3.4-3.1c-.5-.3.9-2.1 3.6-1.7 2.7.3 5.3 2 5.5 3.7s0 3.8 0 3.8h12.3s2.7-.8 2.6-3.8c-.1-3-2-4-4-3.8-2.1.3-3.5.9-5.7 0-2.3-.9-3.7-3.4-3.7-3.4s8-4.1 3.7-15.8c0 0 9-1.8 10.3-6.2s-1.7-6.8-4.9-5.9c0 0-.9-2-2.4-1.2s-3 2.6-2.9 3.9.2 3.5-3.8 4.3c0 0-6-4.3-5.9-8.4.1-4.2 4.8-7.1 5.4-7.5.6-.4 7.5-3.4 7.4-5.6 0 0 3.5-.7 3.1-2.6-.3-2-2.6-4-5.4-5.4 0 0 .2-3.9-3-3.6-3.3.3-2.9 2.1-2.9 2.1s-6.5-.4-9.6 2.4c-3.1 2.8-5.3 4.5-5.9 8-.5 3.6.5 5-.4 6.7-1 1.7-1.2 2.1-1.3 3.6-.1 1.5-.8 6.5 1.4 10.7 2.2 4.2.1 14.6-5.2 19.7s-10.2 3.4-11.2 2.7-13-5.9-19.1 9c0 0 7.3-5.4 11.1-3.7 3.8 1.7 11.1 5.5 18.1 2.4-.1 0 1.2-1.4 3.3 1.3z"/>
		</g>

		<!-- rat -->
		<g id="avatar-22">
			<path fill="#646964" d="M0 0h100v100H0z"/>
			<path fill="#FFFFFF" d="M42 80.5l25.8-.4s3.9-10.6-1.4-10.4c-7 .2-10.8 2.1-10.8 2.1s14-17.6-1.2-17.8c0 0-.7-3 1.2-4s5.5-3 5.2-4.4c-.2-1.3-2.1-3.8-2.8-3.3s-3 1.2-3 1.2-2.2-5.7-1.3-6.9c.8-1.2 4.1-1.2 4.1-1.2S62 38 63.1 38s-1.3-.2 2.8-1.9 6.4-3.3 5.2-4.6c-1.2-1.3-4.5-5.9-4.7-6.8-.2-.9-1.9-4.6-3.8-4.4-1.8.2-5.2-3.2-7.5-2.7s-2.8 1.5-3.6.7c-.9-.7-2.7-2.2-3.3-2.1-.6.1-6.2-3.4-9.1 4 0 0 3.4.2 3.5 1.1.1.9-2.2 2.7-3.5 2.7s.9 5.6 7 5.5c0 0-9.5 16.4-9.1 28.4.4 12-2.7 11.5-3.5 10.2-.9-1.3-1.7-5.7 0-10.2 1.7-4.5 6.8-20.6-14.9-4.7 0 0 12.2-5.1 9.1 3.2S23.6 73.5 26 77c2.4 3.5 10.1 6.1 14.7-1.3 0 0-1.7 4.8 1.3 4.8z"/>
		</g>

		<!-- duck -->
		<g id="avatar-23">
			<path fill="#3a874b" d="M0 0h100v100H0z"/>
			<path fill="#FFFFFF" d="M26 60a18 18 0 0 1-4-5l-2-5c-2-2-10-6-8-7h5l3 1h3v-1a7 7 0 0 0-1-3l-2-3a1 1 0 0 1 0-1 5 5 0 0 1 3 1l6 3c3 1 7 2 10 1l9 1 5 1a8 8 0 0 1 4 2h4c0-1-4-4-4-8l-1-6a1 1 0 0 1 0-1h1a22 22 0 0 1 1-3 1 1 0 0 1 0-1 5 5 0 0 0 0 1l1-1 1-1a8 8 0 0 1 2-1l2-1a9 9 0 0 1 5 0c7 1 8 7 8 8a4 4 0 0 0 1 1 47 47 0 0 0 8 5c2 0 3 2 2 3a8 8 0 0 1-5 0l-5-1-6 1c-1 1 0 0 2 3s6 5 7 8c0 5-1 10-5 12-5 3-11 2-16 3l-6 1a6 6 0 0 0-3 1 3 3 0 0 0 0 5l4 2 1 2a2 2 0 0 1-2 0 8 8 0 0 1-2 1l-7-1a8 8 0 0 1-3-1 1 1 0 0 1-1 0 1 1 0 0 1 0-1 24 24 0 0 1 1-2 5 5 0 0 0 1-3c-1-3-5-3-8-4a24 24 0 0 1-3-2 22 22 0 0 0-3-2 35 35 0 0 1-3-2Z" />
		</g>

		<!-- venus flytrap -->
		<g id="avatar-24">
			<path fill="#58cc80" d="M0 0h100v100H0z"/>
			<path fill="#FFFFFF" d="M68 61H57a34 34 0 0 0-1-21h1l4-5 6-6 2-2a13 13 0 0 0 1-3 3 3 0 0 0-1-4 4 4 0 0 0-3-1 3 3 0 0 0-2 1v1l-3-2a1 1 0 0 1 0-1 4 4 0 0 0 0-2l-2-2c-2-1-4 0-4 2v1a1 1 0 0 1-1 0 9 9 0 0 0-3-1 7 7 0 0 0 0-2 2 2 0 0 0-1-1 3 3 0 0 0-1-1l-4 1v4a7 7 0 0 0-3 2h-1a5 5 0 0 0-2-3 3 3 0 0 0-1 0c-2 0-3 1-3 2l2 3v1a4 4 0 0 1-1 1 6 6 0 0 0-2 3l-3-2-3 3a3 3 0 0 0 1 3 4 4 0 0 0 3 0 34 34 0 0 0-1 5c-1-1-2 0-3 1a3 3 0 0 0 1 4 7 7 0 0 0 1 1 8 8 0 0 0 1 0l1 1a11 11 0 0 1 0 1 11 11 0 0 0 2 2 5 5 0 0 0-2 3c0 5 6 2 8 1l11-5 2-1c0 4 0 10-3 18H35a2 2 0 0 0-2 1c-1 2 0 3 1 3l1 1 2 19s0 4 4 4h21s3 0 3-5l3-18v-1s2 0 2-2-1-2-2-2Z" />
		</g>

		<!-- kiwi -->
		<g id="avatar-25">
			<path fill="#0e4a33" d="M0 0h100v100H0z"/>
			<path fill="#FFFFFF" d="M90 48a52 52 0 0 0-17-14 6 6 0 0 1-3-4v-2a4 4 0 0 0-1-1c-2-4-7-5-11-5a8 8 0 0 0-3 2 26 26 0 0 0-3 2 9 9 0 0 1-5 2 15 15 0 0 1-5-1 16 16 0 0 0-8 1c-6 1-10 7-13 11l-1 1c-2 6-2 14 2 19a22 22 0 0 0 8 6 11 11 0 0 0 1 2 6 6 0 0 0 2 2v6c1 1 0 2 2 2s5 1 5-1a7 7 0 0 0-3-3v-4a4 4 0 0 0 3-3 7 7 0 0 0 2 2v7c1 1 0 2 2 2s5 1 5-1a7 7 0 0 0-2-3l-1-4a6 6 0 0 0 4-5l8-8a25 25 0 0 0 5-12v-2h1a7 7 0 0 0 4-2 2 2 0 0 1 1 0 2 2 0 0 1 1 0l18 10a3 3 0 0 0 1 0c1 0 2 0 1-1a2 2 0 0 0 0-1Z" />
		</g>

		<!-- turtle -->
		<g id="avatar-26">
			<path fill="#008077" d="M0 0h100v100H0z"/>
			<path fill="#FFFFFF" d="M29.1 83.6h15.5s1.6-4.1 1.8-5c.2-.9-.7-2.9 0-3.7.7-.8 1.7-3.3 4-3 2.3.3 4 4.8 4.4 5.8s.6 5.9.6 5.9h15.5s-.6-4.5-1.8-5.9c-1.3-1.4-7.4-7.9-8.2-9.7-.8-1.8-1.3-8.4-1.1-8.8s.6-2.6 1.5-2.6 7.7-1.6 9.2-3.5c1.5-1.9 1.8-5.7 1.3-6.8-.6-1-4.6-2.6-6.3-2.1-1.7.6-3.1 1.3-2.7 2.4s-3 .8-3 .3.8-7.2 3.9-8.5c3.1-1.3 7.8-4.5 8.4-4.5.5 0 4.3 2.4 5.2 2.7.9.3 2.4-3 2.2-5.7-.2-2.7-1.6-8.9-3.3-10s-8-3.3-9.5-2.2c-1.5 1.1-1.4 3.7-2.6 4.5-1.3.8-4.4 5.8-5.3 4.6-.9-1.3-.2-2.7.5-4s1.8-3.7.3-3.8c-1.5-.1-4.8 2.2-5.7 2.7-.9.6-4.5 2.9-9 3S29 28.1 23.6 35.6s-1.8 17.3 1.6 21.1c3.4 3.8 5.1 10.5 4.6 14-.6 3.4-.9 3.9.1 3.5 1-.3 5-1.4 5.5-2.5s3.1-1 1.3 1c-1.9 2.1-6.3 5.4-7.6 10.9z"/>
		</g>

		<!-- mole -->
		<g id="avatar-27">
			<path fill="#2f4d4f" d="M0 0h100v100H0z"/>
			<path fill="#FFFFFF" d="M41.1 84.9h11.5s3.8-2 2.1-4.6c-1.7-2.6-4-1.7-2.1-2.9s5.1 1.4 5.8 3.1c.7 1.7.9 4.4.9 4.4h12.3s3.3-1.1 1.6-4.4c-1.7-3.3-5.1-3.8-7-4.2-1.9-.5-3.6-.8-2.7-2.4.9-1.7 5.2-3.2 5-10.4-.2-7.2-1.7-8 .2-8 2-.1 8.1 1 10.9 0 2.8-1 1.4-1.4.8-1.7-.5-.3 2.7-.8 1.6-1.7-1.1-1-1.3-1.4-1.3-1.4s2.7-.5 1.5-1.4c-1.2-1-3.4-3-6.4-2.2s-6.4-.1-7.3-1.1c-.8-1-1.8-4.9-.8-5.9 1.1-1 13-4.5 15.7-8.6s-2.2-2.8-2.9-2.8c-.7 0-2.7.1-3.9-1-1.3-1.1-5.6-7.5-10-7.6s-5.8 1.5-6.6 1.7c-.8.2-6.5 2.2-6.6 3.9s1.1 2.2 1.1 2.2-1.3 1.8.2 5.8c1.4 3.9-2.3 6.1-2.3 6.1S41.2 45.7 39 57.5s-1.8 15.5-6.3 19c-4.5 3.4-11.1.7-13.1-2.6s-2.6-3.5-3-1.1c-.4 2.4.7 12.4 11.1 12.2 10.4-.2 13.7-7.4 13.7-7.4s-2.6 6.8-.3 7.3z"/>
		</g>

		<!-- penguin -->
		<g id="avatar-28">
			<path fill="#11788c" d="M0 0h100v100H0z"/>
			<path fill="#FFFFFF" d="M39 70c0 2 2 4 4 5a3 3 0 0 1 1 2l-2 1v1a4 4 0 0 0-2 1 2 2 0 0 0 0 1h22a1 1 0 0 1 1 0 3 3 0 0 1 1 0 4 4 0 0 1 1 0 4 4 0 0 0 4-2 13 13 0 0 1-3-1 3 3 0 0 1-1-1 3 3 0 0 1 0-1 24 24 0 0 1-1-6l1-12a28 28 0 0 0-4-13l-3-4-1-8 1-5c-1-7-10-16-17-9a15 15 0 0 0-2 3l-2 3a2 2 0 0 1 0 1 8 8 0 0 1-2 0 30 30 0 0 0-3 2 4 4 0 0 0-1 1c-1 1 0 2 1 3h5c2 0 6 0 7 2a4 4 0 0 1 1 3c1 2-1 4-2 6l-3 7-2 3a20 20 0 0 0-1 10 40 40 0 0 0 2 7Z" />
		</g>

		<!-- mouse -->
		<g id="avatar-29">
			<path fill="#7fb5c7" d="M0 0h100v100H0z"/>
			<path fill="#FFFFFF" d="M45.6 82.3h10.2s-4.6-5.6-4.2-6.7c.4-1.1.5-2.3 1.8-1.4 1.3.9 5.8 8.1 5.8 8.1h10.1s-.8-5-1.9-5.4c-1.1-.4-2.4.2-2.8 0-.4-.2-1.3-3.4-1.5-4.7-.2-1.3.2-1.9.3-2.3.2-.3 2.2-2.4 1.9-3.2-.3-.8-1.5-3.5-.6-4 .8-.5 8.1-3.7 7.2-9.7-.9-6-2.9-5-3.2-4.6-.2.4-4.2 5.2-5.3 5.1-1.1-.1-1.7-5.4-2.3-5.5-.6-.1-.6-.6.2-.7.8-.2 4-1.8 4.6-2.4.6-.6 5.1-1.5 4.8-2.8-.3-1.4-7.7-8.7-7.7-8.7s.1-12.5-5.9-15.9c0 0-5.4 3.1-5.6 9 0 0-.2.8-1.5.6-1.2-.2-5.7-12.2-20.1-6.6 0 0-1.9 8.5 10.3 16 0 0 0 7.9.9 8.5s2.2 1 2.2 1-7.8 8.3-8.8 12.4c-1 4.1 2.6 9.3 3 9.8.4.5 2.8 7.7-4.2 7.8-7 .1-6.6-8.6-5.9-11.5.7-2.8-2 0-2.4 1.7-.4 1.7-2.2 15.6 10.1 16 0 0 7.1 1.5 8.4-2.5 1.1-3.9 2.1 2.6 2.1 2.6z"/>
		</g>

		<!-- starling -->
		<g id="avatar-30">
			<path fill="#4682b4" d="M0 0h100v100H0z"/>
			<path fill="#FFFFFF" d="M36.6 83H51s-.7-4.7-3.1-5.6c-2.4-.8-3.8-2.4-3.2-3.3.6-.9 3-2.7 3-2.7s3.4 3.1 5.5 4c2.1.9 1.7 1.2 1.6 1.7-.1.5-.7 4.3.9 5.8h16.1s-1.2-5.4-2.8-5.8c-1.5-.4-4.1-1.6-5.8-2.6-1.6-.9-4.4-2-4.8-2.4l-.4-.2s1.9-5.3 1.7-6c-.1-.7 9.4-6.1 9.9-12.4S68 43.3 66.9 41.3c-1-2-1.6-3-.8-3.5s4.9-6.3 8.5-6.7c3.6-.4 8.9-.1 8.5-1.7-.3-1.6-2.2-5-5-5.4-2.9-.3-6.4-1.5-8.3-3.4-2-1.9-9.1-4.1-11.6-1.3s-3.5 8.7-5.6 9.4c-2.1.6-10.8 2.9-14.6 15.5-3.8 12.7-3.9 15.2-7.3 18.2S15.4 75.9 15.6 78c.2 2.2 1.3 2.2 1.3 2.2s0 1.3 1 1.9c1 .5 4.8-.2 6.4-1.6 0 0-.8 1.9 1.3 1.9s5-.1 9.5-4.6c0-.1 2.1 4.1 1.5 5.2z"/>
		</g>

		<!-- hedgehog -->
		<g id="avatar-31">
			<path fill="#778899" d="M0 0h100v100H0z"/>
			<path fill="#FFFFFF" d="M31.9 83H48s.5-3.2-.7-4.5c-1.1-1.2-2.2-2.3-1.9-3.1.3-.9 2.7-3.2 2.7-3.2s4.5 2.4 4.5 3.7c0 1.3-1.6 4.4-1.3 7.1H71s-.6-5.2-3-6.2-3.1-.1-4.1-.5-2.1-2.3-2.1-2.3 2.8-4.3 1.9-7c-.9-2.7-1-3.8-.5-4 .6-.2 3.3-2.5 3.7-2.6.4-.1 5.4-.1 4-5.2-1.4-5.1-3.9-5.1-4.3-4.9-.4.3-2 2.5-3 2.7-1 .2-1.8.7-1.8.7s-1-4.9 1-6.4 2.6-2.8 4.1-3.2c1.5-.5 6.8.2 5.7-4.9 0 0 .1-.9-1.6-.8-1.7.1-5-.7-5-.7s-5.6-5.7-6-6.6c-.4-.9-.4-4.8 1.9-5.1 2.3-.4 3.5 0 3.5 0s.2-3.6-4.2-4c-4.4-.4-6.5.2-8.4-.4s-5-4.1-8.1-3.7c0 0 1.2 2.2 1.1 3.1 0 0-9.9-1.4-13.7 2.5 0 0 3.6.6 4.3 1.1 0 0-7.8 4.7-9.3 9.7 0 0 2.6-.1 3.7.1 0 0-6.8 5.1-8.5 12.4 0 0 1.8-1 3.3-1.2 0 0-4.2 7.8-2.3 13.2 0 0 1.4-2.2 3.1-2.6 0 0-.8 12.2 2.2 15.5 0 0 1.1-3 3.9-5.6 0 0 1.9 1.8 2.1 4.1.2 2.3.7 3.6.1 4.4-.2 1-3 3-2.8 8.4z"/>
		</g>

		<!-- fish -->
		<g id="avatar-32">
			<path fill="#4085d4" d="M0 0h100v100H0z"/>
			<path fill="#FFFFFF" d="m29 58 1-2s9 10 14 12c0 0 3 0 2 2s0 7 1 7a23 23 0 0 0 10-6 14 14 0 0 1 2 0c2 0 21-2 26-19v-2c-1-1-8-18-24-19l-2-1c-2-1-10-5-19-6v3c1 3 3 7 2 8L31 45l-2-1c-1-1-10-7-13-4s3 9 3 11-6 8-4 11 14-4 14-4Z" />
		</g>

		<!-- squid -->
		<g id="avatar-33">
			<path fill="#495f8a" d="M0 0h100v100H0z"/>
			<path fill="#FFFFFF" d="M56 82a2 2 0 0 0 0-3h-3a6 6 0 0 1-5-1 5 5 0 0 1-2-4 8 8 0 0 1 1-3 10 10 0 0 1 4-4h6a7 7 0 0 0 5-11v-2a2 2 0 0 1 0-1 60 60 0 0 0 9-7 26 26 0 0 0 2-2 7 7 0 0 0 5-1 7 7 0 0 0 3-5l-1-6a27 27 0 0 1 1-4 33 33 0 0 0 1-6 3 3 0 0 0-1-2c-2-2-5-1-7 0h-2l-6 1h-6a7 7 0 0 0-3 7 42 42 0 0 0-5 5 27 27 0 0 1-3 3l-2 3a2 2 0 0 1-1-1 10 10 0 0 0-6 0 7 7 0 0 0-5 3c-2 3 0 5 0 8l-5 5a9 9 0 0 1-7-1 5 5 0 0 1-1-1 5 5 0 0 1-1-3 10 10 0 0 0 0-3 2 2 0 0 0-2-2l-3 2a8 8 0 0 0 2 9 15 15 0 0 0 2 1 8 8 0 0 0 2 2 8 8 0 0 0 3 0l7-2a2 2 0 0 1 2 0l-1 3a28 28 0 0 1-7 5 7 7 0 0 1-4 1 6 6 0 0 1-3-1 10 10 0 0 1-3-4l-2-3a2 2 0 0 0-3 0 4 4 0 0 0-1 2 7 7 0 0 0 2 6 16 16 0 0 0 6 4 11 11 0 0 0 3 1 10 10 0 0 0 4-1l11-8a4 4 0 0 1 2-1 1 1 0 0 1 1 0 2 2 0 0 1 1 2c-1 4-5 6-7 9a12 12 0 0 0-2 9 12 12 0 0 0 4 7 13 13 0 0 0 4 2 6 6 0 0 0 4 0c1-1 2-2 1-3a4 4 0 0 0-2-2 18 18 0 0 1-4-1 5 5 0 0 1-3-4 6 6 0 0 1 1-4 27 27 0 0 1 5-6 7 7 0 0 1 3-2 1 1 0 0 1 0 1l-2 5a9 9 0 0 0 2 8 12 12 0 0 0 5 2 9 9 0 0 0 4 1 5 5 0 0 0 3-2Z" />
		</g>

		<!-- racoon -->
		<g id="avatar-34">
			<path fill="#1b284a" d="M0 0h100v100H0z"/>
			<path fill="#FFFFFF" d="M64 66h4s2-6 1-7a12 12 0 0 1-1-4 7 7 0 0 0 1-3l1-3c1 0 5 8 11 9s14-2 12-6-17-7-20-10-9-14-18-15-15 4-19 6c0 0-10 1-11 3s-2 0-3-1-2-4-3-3-1 5-2 3-3-3-4-2v7l-2 3-3 6c0 2 1 3 3 2h9l6 2 2 9v4h5l3-5h2a18 18 0 0 1 2 3l1 2h6a38 38 0 0 0 0-6v-4a23 23 0 0 1 5 6l1 4h5l1-7 4 3 1 4Z" />
		</g>

		<!-- butterfly -->
		<g id="avatar-35">
			<path fill="#3c58ac" d="M0 0h100v100H0z"/>
			<path fill="#FFFFFF" d="M82.1 27.3c-.4-1.2-7.7-2.1-16.9 3.9S51.4 45.6 51.4 45.6c0-4.5-1.3-3.8-1.3-3.8H50s-1.3-.7-1.3 3.8c0 0-4.6-8.4-13.8-14.4-9.2-6-16.5-5.1-16.9-3.9-.4 1.2.1 8.7 4.6 16.9C27 52.5 34.4 54 34.4 54s-7.7.8-7.7 4.3 2.9 8.8 5.1 10.5c0 0 .4 1.3 0 2.1s1.7 2.9 5 2.4 5.1-4.1 6.6-7c1.4-2.9 4.3-6.8 4.3-6.8s.8 6.2 2.2 6.6h.2c1.4-.4 2.2-6.6 2.2-6.6s2.9 3.9 4.3 6.8 3.3 6.4 6.6 7c3.3.5 5.4-1.6 5-2.4-.4-.8 0-2.1 0-2.1 2.2-1.7 5.1-7 5.1-10.5S65.6 54 65.6 54s7.5-1.6 11.9-9.8c4.5-8.3 5-15.7 4.6-16.9z"/>
		</g>

		<!-- manta ray -->
		<g id="avatar-36">
			<path fill="#707fcc" d="M0 0h100v100H0z"/>
			<path fill="#FFFFFF" d="M81 48a27 27 0 0 0-10-15 31 31 0 0 0-8-4 6 6 0 0 1-4-6v-2a2 2 0 0 0-1-2h-1a2 2 0 0 0-2 2 5 5 0 0 1-10 0 2 2 0 0 0-2-2h-1a2 2 0 0 0-1 2 14 14 0 0 1 0 3 5 5 0 0 1-4 5 31 31 0 0 0-12 8 25 25 0 0 0-6 17v2a2 2 0 0 0 3 2 15 15 0 0 1 20 4 9 9 0 0 0 6 4 7 7 0 0 0 2 5 7 7 0 0 0 5 3h9a5 5 0 0 1 6 5 2 2 0 1 0 4 0 9 9 0 0 0-8-9 12 12 0 0 0-2 0h-8a4 4 0 0 1-4-4h1a9 9 0 0 0 5-4 14 14 0 0 1 9-6 14 14 0 0 1 11 2 2 2 0 0 0 3-1v-9Z" />
		</g>

		<!-- jellyfish -->
		<g id="avatar-37">
			<path fill="#3d407a" d="M0 0h100v100H0z"/>
			<path fill="#FFFFFF" d="M69 25a24 24 0 0 0-13-5h-3l-3 1a25 25 0 0 0-12 5 5 5 0 0 0-1 5v3a8 8 0 0 0 2 3l-2 1a7 7 0 0 0-5 6v2a4 4 0 0 1-4 3l-4 1a5 5 0 0 0-1 1 5 5 0 0 0-1 1v1l3 1a19 19 0 0 1 3-1 11 11 0 0 0 4-2 7 7 0 0 0 3-4v-3a4 4 0 0 1 4-3l3-1a1 1 0 0 0 1 0h4a4 4 0 0 1 2 4l-4 1a10 10 0 0 0-3 2 8 8 0 0 0-3 4l-1 3a3 3 0 0 1-2 2l-4 1a7 7 0 0 0-5 6v2a4 4 0 0 1-3 3 2 2 0 0 0-2 2c1 2 1 2 3 1a7 7 0 0 0 5-5l1-2a4 4 0 0 1 3-4l3-1a7 7 0 0 0 5-5l1-3a3 3 0 0 1 2-3l4-1h1a7 7 0 0 0 5 4l-1 1-4 1a5 5 0 0 0-3 3 32 32 0 0 0-1 4 4 4 0 0 1-3 4h-4a7 7 0 0 0-4 6l-1 2a4 4 0 0 1-2 3 2 2 0 0 0 0 2 2 2 0 0 0 1 1 2 2 0 0 0 1-1 7 7 0 0 0 3-4l1-2a4 4 0 0 1 3-4h3a7 7 0 0 0 5-6l1-2a4 4 0 0 1 3-4h3a8 8 0 0 0 3-2c2 1 1 4 2 6h-2a7 7 0 0 0-5 6l-1 2a4 4 0 0 1-3 4 16 16 0 0 0-5 1 6 6 0 0 0-3 4 2 2 0 0 0 1 2 2 2 0 0 0 2-1l4-3a14 14 0 0 0 4-1 6 6 0 0 0 3-3 28 28 0 0 0 1-4 4 4 0 0 1 3-4h3a1 1 0 0 1 1 0c3 3 9 1 12-3a24 24 0 0 0 4-11c0-10-3-18-11-23Z" />
		</g>

		<!-- owl -->
		<g id="avatar-38">
			<path fill="#857bdb" d="M0 0h100v100H0z"/>
			<path fill="#FFFFFF" d="M39.6 85.5h33.7s2.4-6.1-2.7-7.5c-5.1-1.5-7.8 1.2-10.3-1.2-2.5-2.4-3.4-3.3-2.5-3.6s5.7-.3 11.1-9.3 6.6-13.5 5.7-14.8c-.9-1.3-3.7-4-2.2-5.7s1.7-.3 2.5-1.6.1-10.3 0-12.3 5.6-5.7 4.5-8.2c-1-2.5-7.2 2-7.2 2s-13.3-1.5-18.6 0c0 0-2.1-1.8-3.6-1.8s-5.7 0-5.8.7c-.1.7 2.4 3.7 4.6 5.1 0 0-1.9 5.8-.3 12.3 0 0-13.2 7.9-12.7 9.4.4 1.5.5 1.5.5 1.5l1.6-.6s-10.5 7.6-10.3 9.7c.2 2.1-.9 12.1-2.8 14.8-1.9 2.7-4.9 4.5-4.9 6.1s-2.2 6.1 2.1 3.4l2.5-1.8s-.7 3.7.7 3.3c1.5-.5 3-2.4 6-5.1 3-2.7 10.2-9.1 14.5-2.4-.1.1-7.3 2.4-6.1 7.6z"/>
		</g>

		<!-- spider -->
		<g id="avatar-39">
			<path fill="#2e1d66" d="M0 0h100v100H0z"/>
			<path fill="#FFFFFF" d="M78 60a3 3 0 0 0 1 0 3 3 0 0 0 2-3l-6-14a3 3 0 0 0-2 0 3 3 0 0 0 0-3l-3-10a3 3 0 0 0-4-2l-3 3-2 1-1-1c-2-4-6-7-10-7a10 10 0 0 0-5 2 15 15 0 0 0-5 5l-1 1a17 17 0 0 1-2-2l-3-2a3 3 0 0 0-4 2l-3 10a3 3 0 0 0 0 3 3 3 0 0 0-2 0l-6 14a3 3 0 0 0 2 3 3 3 0 0 0 1 0 3 3 0 0 0 2-1l-4 13a3 3 0 0 0 2 4 2 2 0 0 0 1 0 3 3 0 0 0 2-2l2-6a3 3 0 0 0 2 2l12 4a3 3 0 0 0 2-5l-8-2 1-2 2-2 4-3 1-2v2a14 14 0 0 0 0 2 9 9 0 0 0 1 5 8 8 0 0 0 2 2l1 1a4 4 0 0 0 1 2l1 1c0-1 0 0 0 0a4 4 0 0 1 0-2h1l1 1v1a4 4 0 0 0 2-3v-1h1a8 8 0 0 0 2-2 9 9 0 0 0 1-5 10 10 0 0 0 0-2v-1h1l2 2 3 3 2 2-2 1-3 1-3 1a3 3 0 0 0 2 5l12-4a3 3 0 0 0 2-2l2 6a3 3 0 0 0 2 2 2 2 0 0 0 1 0 3 3 0 0 0 2-4l-4-13a3 3 0 0 0 2 1ZM66 35l1 2v2l1 3a3 3 0 0 0 1 1l-2 1h-3a2 2 0 0 1-1 0v-1a25 25 0 0 0 0-3v-3a4 4 0 0 1 1-1h1a3 3 0 0 1 1-1Zm-34 7 1-3v-2l1-2 1 1 2 1a1 1 0 0 1 0 1v2a25 25 0 0 0 0 3 4 4 0 0 1 0 1h-4l-2-1a3 3 0 0 0 1-1Zm-6 11 1-3 2-1a9 9 0 0 1 2 0h2l3 1h1a2 2 0 0 1 1 1 3 3 0 0 1 1 1l-2 1H27a3 3 0 0 0-1 0Zm2 13a2 2 0 0 0-1 0l1-3 1-3 1-2h5v1a5 5 0 0 1-1 0l-1 1Zm44 0-7-8h2a16 16 0 0 1 3 0 2 2 0 0 1 1 1 3 3 0 0 1 0 1l1 5 1 1a2 2 0 0 0-1 0Zm1-13H61v-1l2-2a16 16 0 0 1 3-1h4a2 2 0 0 1 2 0v1l2 3a3 3 0 0 0-1 0Z" />
		</g>

		<!-- snail -->
		<g id="avatar-40">
			<path fill="#9584b4" d="M0 0h100v100H0z"/>
			<path fill="#FFFFFF" d="M25.6 77.6h46.1s6-1.6 5.3-22.1C76.2 35 74.9 38.4 75.4 33c.5-5.3 1.7-9.8 0-9.5-1.7.3-2.7 5.5-2.9 6.7 0 0-3.8-.3-4.8.9 0 0-4.2-6.4-5.7-5.3-1.6 1.1 2.4 6.1 2.7 7.4s1.2 8.8.6 12.7c0 0-2.6 1.9-3.2 3.4 0 0-2.6-9.2-7.2-7.5 0 0-10.9-12.8-18.2-5.7 0 0-10.5-2.3-11.1 0-.6 2.3 0 5.7 0 5.7s-.9 3.3 1.6 5.8c0 0-.6 7.8 4.2 10.2 0 0-2.3 7.5 2.3 10.6 0 0-8.6 4.3-12.4 3.6s-4.2.5-1.9 2.4c2.2 2 6.2 3.2 6.2 3.2z"/>
		</g>

		<!-- platypus -->
		<g id="avatar-41">
			<path fill="#663399" d="M0 0h100v100H0z"/>
			<path fill="#FFFFFF" d="M39.3 84.3h13.3s1.1-2.1 0-3.6c-1.1-1.4-2.6-2.5-1.9-3.2.6-.7 3.1-1 3.8-.4.7.6.7 1.2 1.2 2.5.5 1.2 1.9 4.7 1.9 4.7h14.1s.8-1.3 0-2.7-1.3-2.6-1.4-2.9-3.1-3.6-5.2-4.3c-2.1-.7-3.9-2.1-3.9-3.2s3.6-6.4 4.2-10.9c.6-4.5.3-5.2 1.8-5.4 1.5-.2 3.1-.4 4 .8.9 1.2 2.6 3.5 3.4 3 .8-.5 4.9-6 4.2-7.5-.7-1.4.5-1.7.1-2.5-.5-.6-1.9-5.7-3.3-4.7s-5.1 1.8-7.6 1.1-.7-6 1.4-8.2c0 0 7.6.5 10.6-.6 3.1-1.1 5.1-4 5.1-4.8 0-.8-1.7-3.6-5.1-3.8-3.4-.2-4.3-1.2-4.3-1.2s-4.3-8.7-12.7-7.1c-8.4 1.6-9 7.4-9.1 10.5s1.2 6.9-1.3 8.4c-2.6 1.5-12.2 7.2-13.4 15.8-1.2 8.7-.1 11.2-3 11.2s-18.8.2-21.9 4.7c-3.1 4.5 3.4 11.6 11 12.3 7.7.7 10.2.2 13.7-5.2 3.5-5.3 1.7-1.2 1.4-.4-.1 1-1.6 6-1.1 7.6z"/>
		</g>

		<!-- bat -->
		<g id="avatar-42">
			<path fill="#5a2b5e" d="M0 0h100v100H0z"/>
			<path fill="#FFFFFF" d="M15.8 71.2S13.4 27.8 30.5 26c0 0 .4-1 1.4 2 1.1 3 5.7 16.9 6.8 16.6 1.2-.2 2.7-1.9 2.7-1.9s-1.8-4.3-.4-8.6c0 0-3.7-4.9-2.3-7.8s6.9 4 6.9 4 3.1-1.3 5.4.1c0 0 5.6-5.1 7.3-3.9 1.7 1.3-3 8.5-3 8.5s1.5 3.1-.7 8.8c0 0 .9 2.1 2.2 1.8 1.3-.3 2.2-.7 3-2.9.8-2.2 5.2-14.8 6.3-15.2s3.5-1.7 6.7 2.1 8.1 9.3 7.4 43.4c0 0-.7.8-.9 0-.2-.8-.8-7.9-4.2-7.3-3.5.5-3.7 2-3.7 2s-.7 1-1.1-.4-.7-4.6-2.5-5c-1.8-.4-3.2 1-3.2 1s-.9 1.3-1.5 0-1.4-2.5-3.2-3.1c-1.8-.5-2 1.1-2.6 2.2s-2.5 3.9-2.8 3.9c-.3 0 0 4.5 0 4.5s4.3-.5 4.3 4.9h-8.4V69l-2.3.9-2.4-.9v6.6h-9.6s-.8-6.2 5.1-5.1v-4.3s-2-3.1-2.7-5.5c-.7-2.4-3.4-.6-3.8.1s-1.5 2.5-2.1 2.5-2.2-3.1-3.7-2.1c-1.5 1.1-2.6 2-2.9 4.2-.3 2.2-1.5 1.7-1.9 1.2-.4-.5-3.4-3.7-5-1.5s-2.2 4.8-2.2 4.8-.6 3-1.1 1.3z"/>
		</g>

		<!-- axolotl -->
		<g id="avatar-43">
			<path fill="#da70d6" d="M0 0h100v100H0z"/>
			<path fill="#FFFFFF" d="M40.6 81.2s-1 1.9 0 2.2c1 .3 4.1 0 4.1 0s1-1.1 1.9-.7c.9.4.9.9.9.9h4.8s.7-3.2 0-3.5c-.7-.3-3.3-1.8-1.8-2.6s4.1-.6 5.4 1.5.9 3.6 1 3.9c.1.2 0 .7 0 .7h5.6s.4-1.5 1.4-1.1c1 .4 1.4 1.1 1.4 1.1H70s2.2-2 .6-3.7c-1.6-1.8-4.7-2.4-6.3-3.3-1.6-.9-3.1-2.5-3.1-3.1-.1-.6-.1-4.1 1.7-7.4 1.9-3.4.4-8.6 2.8-8.7 2.4-.1 3.5.5 4 1.2s1.3 2 2.6 2.1c1.3.1 2.7-2.4 2.6-2.8-.1-.4-.4-2.8-.4-2.8s1.9-3.7 1.3-4.7c-.6-1-1.1-1.7-3.4-1.1-2.4.5-5.5.7-6.2-.3-.7-1-.6-4.2-.2-4.7.4-.4.4-2.4 2.1-2.4 1.7 0 8.9.1 9.7-.4.8-.5 0-2 0-2l1.5.9s2.7-.4 2.1-6c-.6-5.6-3.9-6.5-6-7.1-2.1-.6-2.1-1.6-2.4-3.6-.3-1.9-.8-4.4-1.6-5-.9-.6-2 .9-2.2 1.6-.2.7-.9 1.1-.9 1.1s-.6-1-1.9-1.6c-1.4-.6-2.2-.1-2.3.5s-.2 2-.2 2-2-.5-2.6-.6-1.1.9-1.1.9-1.4.8-2.5.1c-1.1-.6-1.6-1.4-1.9-2.2-.2-.9-1.3-2.6-2.5-1.1s-1.6 3.5-.5 7.1c0 0-1.1-.4-2.1-1.4-.9-1-3.4-1.5-3.7.9s-1 6.1 7.6 12.2c0 0 1.1.7-.1 1.7S44.6 46.2 42 52.3c-2.6 6.1-6.3 18-10.6 18.1-4.3.1-9.9-2.1-11.2-.8-1.4 1.3-.6 9.9 6.4 11.8 7.1 1.9 10.5 1.4 12.2.6l1.8-.8z"/>
		</g>

		<!-- dragonfly -->
		<g id="avatar-44">
			<path fill="#e08dcc" d="M0 0h100v100H0z"/>
			<path fill="#FFFFFF" d="M35 27a10 10 0 0 1-1-5 5 5 0 0 1 1-4 9 9 0 0 1 5-2 5 5 0 0 1 1 0 4 4 0 0 1 2 1l5 7a96 96 0 0 0 6 9l1 2a10 10 0 0 1 1 1 1 1 0 0 0 0 1l1-1a6 6 0 0 1 2 0 6 6 0 0 1 7 2 6 6 0 0 1-1 6v2l1 1a12 12 0 0 0 3 2l12 8c2 1 5 4 5 7a4 4 0 0 1-3 4 10 10 0 0 1-7 0 22 22 0 0 1-4-3l-5-3a17 17 0 0 1-5-4 11 11 0 0 1-2-6v-2a7 7 0 0 1-4 2l2 7 4 7a28 28 0 0 1 2 7 7 7 0 0 1 0 4 6 6 0 0 1-4 3 6 6 0 0 1-7-1l-3-6-3-10a40 40 0 0 1 0-5 3 3 0 0 0-2 0 45 45 0 0 0-3 4 82 82 0 0 1-12 11h-1a1 1 0 0 1 0-1 5 5 0 0 1 1-1l2-3 2-2a83 83 0 0 0 10-11v-1a2 2 0 0 0-1 0 7 7 0 0 1-2 1 28 28 0 0 1-9-2 32 32 0 0 1-8-4 8 8 0 0 1-2-1 5 5 0 0 1-1-4 7 7 0 0 1 2-4 7 7 0 0 1 2-1c2-1 5 0 8 1 4 1 8 2 12 5l3 2 1-2 2-3a2 2 0 0 1 1 0h-3a9 9 0 0 1-5-2 24 24 0 0 1-4-5l-3-5-2-3Z"/>
		</g>

		<!-- pig -->
		<g id="avatar-45">
			<path fill="#dd9fbd" d="M0 0h100v100H0z"/>
			<path fill="#FFFFFF" d="M51.7 85.9h4.1s.8-2.8 1.5-2.4c.8.4 2.3 2.4 2.3 2.4h4.7s-6.2-9.4-11.5-13.3c0 0 6.3-12.3 7.7-21.4 0 0 4 2.7 4.9 2.4s2-1 1.4-2.4l-.5-1.4s2.1-.2 3.7 0 2.6 0 1.1-1.7-4.5-7.2-9.3-4c0 0-.3-5.7 0-6.6.3-1-.8-2.3 6.9-6.3s7.3-2.9 7.7-4 .5-5.8 0-5.9-2.6 0-2.6 0-2.7-.2-4.7-1.6c-2-1.4-9.5-3.4-12.4-1.7-2.9 1.6-.8-2.6-.8-2.6s.8-1.6 0-1.3-7 1.3-6.8 8.8c0 0-.3 1.2-2 2.1-1.6.9-14.7 5.9-18.9 18.8s-.3 22.1-1.7 23.8c-1.4 1.7-3.6.8-3.3 1.4.3.7 2.5 3.7 7.2.9 0 0 3 5 3 10.1s-.5 6.1-.5 6.1h6.3l.5-3.4 3.4 3.4h4.5l-5.1-7.8c0-.2 7.7-1.1 9.2 7.6z"/>
		</g>

		<!-- humming bird -->
		<g id="avatar-46">
			<path fill="#ab225b" d="M0 0h100v100H0z"/>
			<path fill="#FFFFFF" d="M88 32c0-2-23 0-23 0a1 1 0 0 1 0-1 7 7 0 0 0-3-2 10 10 0 0 0-10 2l-1 1-10-13h-2c-2 3-2 6 0 9a5 5 0 0 0-2 6v1l-6-4a990 990 0 0 0-8-2c0 2 0 6 3 7v1a5 5 0 0 0 1 6 1 1 0 0 1 1 1 4 4 0 0 0 2 4 1 1 0 0 1 0 1 12 12 0 0 0 0 1 5 5 0 0 0 4 3l4 1-5 5-13 14a2 2 0 0 0-1 1v3a1 1 0 0 0 1 1h1a22 22 0 0 0 5-2l1 1a9 9 0 0 0 0 1h1a16 16 0 0 0 6-4l1 1a1 1 0 0 0 2 0l2-2a6 6 0 0 0 1-3h3l1-1a13 13 0 0 0 0-1 1 1 0 0 1 1-1 35 35 0 0 0 10-4 12 12 0 0 0 5-8 45 45 0 0 0 1-6 36 36 0 0 0 0-4 7 7 0 0 0 4-3 9 9 0 0 0 2-3 9 9 0 0 0 0-3c0-1 22-3 21-4Z" />
		</g>

		<!-- rabbit -->
		<g id="avatar-47">
			<path fill="#eb4773" d="M0 0h100v100H0z"/>
			<path fill="#FFFFFF" d="M67.5 85.9s-.3-7.3-4.1-11.7c-3.8-4.4-3.3-3.5-2.4-4.4 0 0 2.8 2.9 5.8.7 3-2.3 2.7-8.1 0-8.4-2.7-.3-4.7 2-5.1 1.6l-.3-.3-.8-2.8s-4.4-10.7-6.2-12.2c-1.8-1.6-2.4-2-2.1-2.8.3-.8 2.1-1.5.9-9.4 0 0-1.1-2.2-1.3-3-.2-.8-.1-1.3.3-1.4.3-.1 5.9-3.4 7.9-6.9 2-3.5 2.1-7.4 1.4-8.4s-3.1-1.8-7.2 2.2c0 0 1-4.7-.3-4.8s-6 2.2-7.4 6.9c-1.4 4.7-1.6 8.3-1.6 8.3s-5.4 1.4-7.6 4.6-3.5 5.6-4 5.9c-.5.3-2.1 1.3-1.1 2.9s3.4 3.8 7.4 4.6c0 0-1.1 2.3 1.8 2.8 0 0-2.1 3.2-2.5 7.8 0 0-5.5-1.3-6.6.6-1.1 1.9-1.7 5.7-.5 7.2C33 67 35 64.1 35.2 63c.2-1.1.3-1.7.3-1.7s2.1 1.1 2.9 1.1c0 0-2.7 6.7 2.5 12.6l.6 1.5-.3 3.3s-9.2 1-7.9 5.7l.7.5h12.2s1.2-2.4.5-5.1-.8-3.3-.8-3.3 5.8 1.8 9.2-3.1c0 0 3.6 2.9 4 4.8 0 0-10.1.5-7.3 6.6h15.7z"/>
		</g>

		<!-- crab -->
		<g id="avatar-48">
			<path fill="#d13640" d="M0 0h100v100H0z"/>
			<path fill="#FFFFFF" d="M29 46a14 14 0 0 1-4-2 13 13 0 0 1-4-5c-2-4-2-9 1-12a5 5 0 0 1 2-1 1 1 0 0 1 1 0 1 1 0 0 1 0 1 12 12 0 0 1 1 2v2a3 3 0 0 0 1 2 1 1 0 0 0 1 0 1 1 0 0 0 1 0 2 2 0 0 0 0-1 15 15 0 0 0-1-3 3 3 0 0 1 0-1 1 1 0 0 1 0-1h1l2 1a9 9 0 0 1 2 2 14 14 0 0 1 3 7l1 6a3 3 0 0 0 2 3l5-1-1-4a1 1 0 0 0 0-1 3 3 0 0 1-1-2 3 3 0 1 1 5 2v4h5a5 5 0 0 1 1-2v-2a3 3 0 0 1-1-2 3 3 0 0 1 2-4 3 3 0 0 1 4 2 3 3 0 0 1-1 4 1 1 0 0 0 0 1l-1 4 2 1a6 6 0 0 0 2 0c2 0 3-1 3-3a34 34 0 0 1 1-7 14 14 0 0 1 4-7 8 8 0 0 1 1-1 10 10 0 0 1 2-1 1 1 0 0 1 1 0 2 2 0 0 1 0 1v5l1-2a11 11 0 0 0 1-1 7 7 0 0 0 1-3v-2a1 1 0 0 1 1 0l2 2a8 8 0 0 1 1 3 25 25 0 0 1 1 2v3a13 13 0 0 1-10 12 1 1 0 0 0-1 0l-1 3a9 9 0 0 1-1 1 14 14 0 0 1 3 5h3a4 4 0 0 0 3-1 4 4 0 0 0 1-3v-2l1-2a1 1 0 0 1 2 1 4 4 0 0 1 0 1 8 8 0 0 1-2 7 8 8 0 0 1-6 3h-2v3h3a8 8 0 0 1 6 3 4 4 0 0 1 1 2v1l-1 3-2-2a5 5 0 0 1-1-1 4 4 0 0 0-3-3h-5l-1 2v1a7 7 0 0 1 5 5 12 12 0 0 1 0 1 4 4 0 0 1 0 2v1l-2 2c-1 0-2-1-2-3a11 11 0 0 0 0-2c0-3-4-5-6-3a24 24 0 0 1-2 1 25 25 0 0 1-12 2 23 23 0 0 1-10-3 5 5 0 0 0-2-1 4 4 0 0 0-4 4 8 8 0 0 0 0 1 5 5 0 0 1 0 1 5 5 0 0 1 0 1l-2 2s-2-1-2-3v-1a8 8 0 0 1 2-5 5 5 0 0 1 2-2l1-1a4 4 0 0 0-1-1l-2-1a13 13 0 0 0-3 0 4 4 0 0 0-4 3v1l-2 2-1-3a6 6 0 0 1 0-1 8 8 0 0 1 7-5l3-1v-1l-1-1a6 6 0 0 1-2 0 8 8 0 0 1-7-6 14 14 0 0 1 0-4v-1a5 5 0 0 1 0-1l1-2 2 2a5 5 0 0 1 0 1v3c0 3 2 4 5 4a12 12 0 0 1 2 0 1 1 0 0 0 1 0l1-4 1-1-1-1a7 7 0 0 1-1-2 3 3 0 0 0-2-2Z" />
		</g>

		<!-- scorpion -->
		<g id="avatar-49">
			<path fill="#ff4346" d="M0 0h100v100H0z"/>
  		<path fill="#FFFFFF" d="m88 53 1-8v-1l-1 1-3 2a2 2 0 0 1-3-2 13 13 0 0 1 1-1v-3c-6 2-11 6-10 14h-3a1 1 0 0 1-1 0l-3-7 2-5h2a6 6 0 0 0 2-1 5 5 0 0 0 1-4 5 5 0 0 0 0-3 2 2 0 0 0-1-1 1 1 0 0 0-1 0 1 1 0 0 0 0 1 9 9 0 0 1-1 2l-3 1a9 9 0 0 0-3-4 1 1 0 0 1-1-1c0-1 1-2 3-2a12 12 0 0 0 2-1v-1a6 6 0 0 0-3-1 7 7 0 0 0-3 0c-2 0-3 2-3 4l-6 1-5-4a1 1 0 0 1 0-1l1-2a12 12 0 0 0 7 0c4-1 7-4 9-7h-1l-3-1a2 2 0 0 1-2-1 2 2 0 0 1 0-2l3-3h1l-4-1a13 13 0 0 0-12 4 7 7 0 0 0-2 7 2 2 0 0 1 0 1l-2 7a1 1 0 0 0 0 1l2 1 2 1v3a3 3 0 0 0-1-1l-3-1a2 2 0 0 1-1-2l-1-2v-2a1 1 0 0 0-1 0 3 3 0 0 0-2 3 4 4 0 0 0 0 1 7 7 0 0 0 0 1l1 2a4 4 0 0 0 1 2l3 1a13 13 0 0 0-1 1 1 1 0 0 1-2 0l-4-2-1-3a1 1 0 0 0-2 0 2 2 0 0 0-1 1 3 3 0 0 0 0 1l1 3a5 5 0 0 0 0 2 4 4 0 0 0 2 1 14 14 0 0 0 2 1c0 2-1 2-2 1l-2-1a16 16 0 0 1-2-2 1 1 0 0 0-1 0 1 1 0 0 0-1 0 2 2 0 0 0 0 2 7 7 0 0 0 2 3 10 10 0 0 0 2 2l1 1-1 1-2-1a9 9 0 0 1-2 0 5 5 0 0 1-1-3h-1a1 1 0 0 0-1 1 3 3 0 0 0 0 1 7 7 0 0 0 1 2 7 7 0 0 0 2 3l1 1 2 1a2 2 0 0 1 0 1h-1a5 5 0 0 0-3 4l-1 2a5 5 0 0 0-5 7c-3 2-4 3-3 6a4 4 0 0 0 2 2 5 5 0 0 0 3 1v5l1 2a13 13 0 0 0 1 1 9 9 0 0 0 9 0 10 10 0 0 0 3-3 35 35 0 0 1-4-2 25 25 0 0 1-2-2 6 6 0 0 0-5-2 5 5 0 0 0 1-5 5 5 0 0 0 3-1 6 6 0 0 0 1-4 5 5 0 0 0 5-1 2 2 0 0 1 3-1c1 3 1 7 4 8a3 3 0 0 0 2 0 1 1 0 0 0 1 0l-1-2a10 10 0 0 1-1-3 22 22 0 0 1 0-4h2v2a7 7 0 0 0 1 3 5 5 0 0 0 1 1 6 6 0 0 0 4 1 1 1 0 0 0 1 0 1 1 0 0 0 0-1 3 3 0 0 0 0-1 11 11 0 0 1-2-2 18 18 0 0 1-1-4 1 1 0 0 1 0-1 12 12 0 0 1 2-1l1 5a11 11 0 0 0 3 2 4 4 0 0 0 2 1 1 1 0 0 0 1-1 2 2 0 0 0 0-1 12 12 0 0 0-2-3 11 11 0 0 1-1-2 12 12 0 0 1 0-3l1-1 3 4a8 8 0 0 0 3 2 5 5 0 0 0 2 0v-1l-2-3a7 7 0 0 1-1-3 5 5 0 0 0-1-1v-1a4 4 0 0 1 1-1l2 2 2 3a1 1 0 0 0 1 1l7-1a2 2 0 0 1 1 1 6 6 0 0 0 5 0c3-1 6-4 7-7Z" />
		</g>

		<!-- bot A -->
		<g id="avatar-A">
			<path fill="#826f67" d="M0 0h100v100H0z"/>
			<path fill="#FFFFFF" d="M82 39h-4V28a3 3 0 0 0-2-2H52V10h-4v16H24a3 3 0 0 0-2 2v11h-4a2 2 0 0 0-2 2v17a2 2 0 0 0 2 2h4v15a3 3 0 0 0 2 3h52a3 3 0 0 0 2-3V60h4a2 2 0 0 0 2-2V41a2 2 0 0 0-2-2Zm-50 6a7 7 0 1 1 7 7 7 7 0 0 1-7-7Zm29 21H39v-5h22Zm7-21a7 7 0 0 1-7 7 7 7 0 1 1 7-8Z" />
		</g>

		<!-- bot B -->
		<g id="avatar-B">
			<path fill="#6b8267" d="M0 0h100v100H0z"/>
			<path fill="#FFFFFF" d="M82 39h-4V28a3 3 0 0 0-2-2H52V10h-4v16H24a3 3 0 0 0-2 2v11h-4a2 2 0 0 0-2 2v17a2 2 0 0 0 2 2h4v15a3 3 0 0 0 2 3h52a3 3 0 0 0 2-3V60h4a2 2 0 0 0 2-2V41a2 2 0 0 0-2-2Zm-50 6a7 7 0 1 1 7 7 7 7 0 0 1-7-7Zm29 21H39v-5h22Zm7-21a7 7 0 0 1-7 7 7 7 0 1 1 7-8Z" />
		</g>

		<!-- bot C -->
		<g id="avatar-C">
			<path fill="#677182" d="M0 0h100v100H0z"/>
			<path fill="#FFFFFF" d="M82 39h-4V28a3 3 0 0 0-2-2H52V10h-4v16H24a3 3 0 0 0-2 2v11h-4a2 2 0 0 0-2 2v17a2 2 0 0 0 2 2h4v15a3 3 0 0 0 2 3h52a3 3 0 0 0 2-3V60h4a2 2 0 0 0 2-2V41a2 2 0 0 0-2-2Zm-50 6a7 7 0 1 1 7 7 7 7 0 0 1-7-7Zm29 21H39v-5h22Zm7-21a7 7 0 0 1-7 7 7 7 0 1 1 7-8Z" />
		</g>

		<!-- bot D -->
		<g id="avatar-D">
			<path fill="#6b6782" d="M0 0h100v100H0z"/>
			<path fill="#FFFFFF" d="M82 39h-4V28a3 3 0 0 0-2-2H52V10h-4v16H24a3 3 0 0 0-2 2v11h-4a2 2 0 0 0-2 2v17a2 2 0 0 0 2 2h4v15a3 3 0 0 0 2 3h52a3 3 0 0 0 2-3V60h4a2 2 0 0 0 2-2V41a2 2 0 0 0-2-2Zm-50 6a7 7 0 1 1 7 7 7 7 0 0 1-7-7Zm29 21H39v-5h22Zm7-21a7 7 0 0 1-7 7 7 7 0 1 1 7-8Z" />
		</g>

		<!-- bot E -->
		<g id="avatar-E">
			<path fill="#826773" d="M0 0h100v100H0z"/>
			<path fill="#FFFFFF" d="M82 39h-4V28a3 3 0 0 0-2-2H52V10h-4v16H24a3 3 0 0 0-2 2v11h-4a2 2 0 0 0-2 2v17a2 2 0 0 0 2 2h4v15a3 3 0 0 0 2 3h52a3 3 0 0 0 2-3V60h4a2 2 0 0 0 2-2V41a2 2 0 0 0-2-2Zm-50 6a7 7 0 1 1 7 7 7 7 0 0 1-7-7Zm29 21H39v-5h22Zm7-21a7 7 0 0 1-7 7 7 7 0 1 1 7-8Z" />
		</g>

		<!-- bot Alien -->
		<g id="avatar-T">
			<path fill="#797e5c" d="M0 0h100v100H0z"/>
  		<path fill="#fff" d="M50.6 15a29 29 0 0 1 29 29c0 22.2-18.8 41-29 41s-29-18.8-29-41a29 29 0 0 1 29-29Zm18.8 34.1a15.3 15.3 0 0 0-6.3 1.4 15.1 15.1 0 0 0-5.1 3.7 15.4 15.4 0 0 0-3.9 12A15.4 15.4 0 0 0 70.2 56a15.3 15.3 0 0 0 .8-6.8h-1.6Zm-37.6 0a14.5 14.5 0 0 0-1.6.1 15.3 15.3 0 0 0 10.2 16.1 15.1 15.1 0 0 0 6.7.8 15.4 15.4 0 0 0-15.3-17Z"/>
		</g>

		<!-- none -->
		<g id="avatar-N">
			<path fill="gray" d="M0 0h50v50H0z"/>
			<path fill="#FFFFFF" d="M17.7 41.5h7.5s1.4-.4.8-1.4c-.6-1-1.1-1.1-1.4-1.3-.4-.1-.6-.4-.6-.4s-.2-.4.4-.5c.7 0 1 0 1.3.3.3.3 2.1 1.1 2.2 1.4.1.3.3 1.5.3 1.5h6.9s.5-1.9-.6-2.7-1.9.4-3.4-1.3c-1.5-1.7-2.4-1.9-1.6-4.2.8-2.3 3.2-5.1 4.4-4.7 1.2.4 1.4.9 1.8 1.2s1.3.2 2.3-1.2c.9-1.4-.2-3.1-1-3.1s-4 .4-4.4.4-.6-.2-.6-.6c.1-.4 1.3-1.9.4-2.8-.9-.9-1.5-.6-1.4-.8 0-.3-.2-1.3 1.4-1.4 1.6-.2 2.5.5 3.5-.3 1.1-.8 1.3-1.8.5-1.9-.8 0-2.1 0-2.9-.9-.8-.9-1.8-1.3-1.9-1.9 0-.6-.2-1.8-1.1-1.9-.9-.1-1.5-.4-1.4-1.1.1-.8 0-1.6.4-1.8s1.3-1.3-.3-.8-2.8.7-4.4 2.4-2.7 3.8-3 4.1c-.3.4-.8.6-.6 1.1.2.4 2.1 2.9 1.7 7-.4 4.1-1.7 6.6-2 6.2-.3-.4 0-3.8-.8-5.1-.8-1.3-4-2.6-3.4-4.6s1.9.3 2-.9c0-1.2-.8-2.9-2.9-2.1s-5.9 3.7-4.9 8.3 2.4 5.6 4.2 7.1c1.7 1.5 4.7 2.4 4.4 3.2-.4.8-2.4 4-2.2 4.6-.1.4 0 .9.4.9z"/>
			<path fill="#BABABA" d="M50 50h50v50H50z"/>
			<path fill="#FFFFFF" d="M55.7 90s7.8-6.5 10-8.1c0 0 .1-2.8 3-4.8S81.2 68.5 81 65.4c-.2-3.1-3.6-4.3-2.1-4.8s7.9.2 8.3 1.8c.4 1.6 1.4 2.3 1.9 2.3s4 1.7 2.7 2.3-3.2.9-3.9 1.2c-.7.3 1.9 9.6-3.4 13.1-5.3 3.6-6.2 4.4-5.8 4.9s.7 2 1.1 1.9c.5-.1 3.9-1.1 4.9-.1.9 1 .8 2.4.8 2.4H74.9s-.7-1.3.3-1.5c.9-.2 1.4-1.7.2-2.3-1.2-.7-3.9-.3-5.1-1.2-1.1-.9-1.7-.4-1.7-.4s-3.2 4.7-4.6 5c-1.4.3-2.4.5-2.5 0-.1-.5.3-1.2.3-1.2s-.4.7-2.1.9c-1.7.2-4 .3-4 .3z"/>
			<path fill="#4E4E4E" d="M50 0h50v50H50z"/>
			<path fill="#FFFFFF" d="M78.2 37.8c-.2-.4-1-2.5.7.2s3 2.9 6.8 2.6c3.8-.3 7.1-3.9 5.5-6.2-1.5-2.2-9.5-2.4-10.9-2.4s-.9-1.3-1.5-5.6-5.4-7.2-6.7-7.9-.6-2.6-.7-4.2c-.1-1.6-.4-4.4-4.5-5.3-4.2-.8-6.3 3.5-6.3 3.5s-.5.5-2.1.6c-1.7.1-2.6 1.5-2.6 1.9 0 .4 1 1.8 2.6 2.4 1.5.6 5.3.3 5.3.3 1.1 1.1 1.9 3.7.7 4.1-1.2.4-3.1-.1-3.8-.6-.7-.5-1.4 2-1.6 2.4-.2.4.4.5 0 1.2s1.7 3.5 2.1 3.7c.4.3 1.2-.9 1.7-1.5s1.2-.5 2-.4c.8.1.6.5.9 2.7.3 2.2 2.1 5 2.1 5.5S67 36 66 36.4c-1.1.4-2.6 2-2.6 2.1-.1.2-.3.8-.7 1.4s0 1.3 0 1.3h7.1s.7-1.7 1-2.4c.3-.6.3-.9.6-1.2.4-.3 1.6-.2 1.9.2.3.4-.4.9-1 1.6s0 1.8 0 1.8h6.6c.3-.5-.5-3-.7-3.4z"/>
			<path fill="#595959" d="M0 50h50v50H0z"/>
			<path fill="#FFFFFF" d="M63.4 43.3c-.2-.5-3.1-.8-6.8 1.6-3.7 2.4-5.5 5.8-5.5 5.8 0-1.8-.5-1.5-.5-1.5h-.1s-.5-.3-.5 1.5c0 0-1.8-3.4-5.5-5.8s-6.6-2-6.8-1.6c-.2.5.1 3.5 1.8 6.8 1.8 3.3 4.8 3.9 4.8 3.9s-3.1.3-3.1 1.7 1.2 3.5 2 4.2c0 0 .2.5 0 .8-.2.3.7 1.2 2 .9 1.3-.2 2-1.6 2.6-2.8.6-1.2 1.7-2.7 1.7-2.7s.3 2.5.9 2.6c.6-.2.9-2.6.9-2.6s1.2 1.6 1.7 2.7c.6 1.2 1.3 2.6 2.6 2.8 1.3.2 2.2-.6 2-.9-.2-.3 0-.8 0-.8.9-.7 2-2.8 2-4.2 0-1.4-3.1-1.7-3.1-1.7s3-.6 4.8-3.9c2.1-3.3 2.3-6.3 2.1-6.8zM15.1 90h8s.2-1.6-.3-2.2c-.6-.6-1.1-1.1-1-1.6.1-.4 1.3-1.6 1.3-1.6s2.2 1.2 2.2 1.9-.8 2.2-.7 3.6h9.9s-.3-2.6-1.5-3.1-1.6 0-2-.2-1-1.1-1-1.1 1.4-2.1 1-3.5c-.4-1.3-.5-1.9-.2-2s1.7-1.2 1.9-1.3c.2 0 2.7 0 2-2.6-.7-2.6-2-2.6-2.1-2.4-.2.1-1 1.2-1.5 1.3-.5.1-.9.4-.9.4s-.5-2.5.5-3.2c1-.8 1.3-1.4 2-1.6.8-.2 3.4.1 2.9-2.4 0 0 0-.4-.8-.4-.9 0-2.5-.3-2.5-.3s-2.8-2.9-3-3.3c-.2-.4-.2-2.4 1-2.6 1.1-.2 1.8 0 1.8 0s.1-1.8-2.1-2-3.2.1-4.2-.2c-1-.3-2.5-2-4-1.9 0 0 .6 1.1.6 1.6 0 0-5-.7-6.9 1.2 0 0 1.8.3 2.1.6 0 0-3.9 2.3-4.7 4.9h1.9s-3.4 2.6-4.2 6.2c0 0 .9-.5 1.7-.6 0 0-2.1 3.9-1.1 6.6 0 0 .7-1.1 1.5-1.3 0 0-.4 6.1 1.1 7.8 0 0 .6-1.5 2-2.8 0 0 1 .9 1 2 .1 1.1.3 1.8 0 2.2-.4.2-1.8 1.2-1.7 3.9z"/>
		</g>
	</defs>
</svg>
